<svg width="41" height="40" viewBox="0 0 41 40" fill="none" xmlns="http://www.w3.org/2000/svg">
<g clip-path="url(#clip0)">
<path d="M38.9463 38.6666V10.2621C38.9463 9.8975 38.647 9.60156 38.2767 9.60156H32.9196C32.5492 9.60156 32.2499 9.8975 32.2499 10.2621V38.6666H28.9017V14.2255C28.9017 13.8609 28.6024 13.565 28.2321 13.565H22.8749C22.5046 13.565 22.2053 13.8609 22.2053 14.2255V38.6666H18.1874V18.189C18.1874 17.8243 17.8881 17.5284 17.5178 17.5284H12.1606C11.7903 17.5284 11.491 17.8243 11.491 18.189V38.6666H8.14277V22.1524C8.14277 21.7877 7.84344 21.4918 7.47313 21.4918H2.11598C1.74567 21.4918 1.44634 21.7877 1.44634 22.1524V38.6666H0.107056V39.9877H2.11598H7.47313H12.1606H17.5178H22.8749H28.2321H32.9196H38.2767H40.2856V38.6666H38.9463ZM6.80348 38.6666H2.78563V22.8129H6.80348V38.6666ZM16.8481 38.6666H12.8303V18.8495H16.8481V38.6666ZM27.5624 38.6666H23.5446V14.8861H27.5624V38.6666ZM37.6071 38.6666H33.5892V10.9227H37.6071V38.6666Z" fill="black"/>
<path d="M35.5982 0.353638C34.4906 0.353638 33.5892 1.24276 33.5892 2.33535C33.5892 2.36177 33.5959 2.38687 33.5973 2.41329L27.0548 4.9948C26.6859 4.5826 26.1528 4.31705 25.5535 4.31705C24.4459 4.31705 23.5446 5.20618 23.5446 6.29876C23.5446 6.41436 23.56 6.526 23.5794 6.63631L16.1531 10.7569C15.8002 10.4531 15.3435 10.2622 14.8392 10.2622C13.7316 10.2622 12.8303 11.1513 12.8303 12.2439C12.8303 12.3443 12.8457 12.4401 12.8604 12.5365L6.1439 16.0699C5.78631 15.7482 5.31556 15.5467 4.79457 15.5467C3.68698 15.5467 2.78564 16.4359 2.78564 17.5284C2.78564 18.621 3.68698 19.5101 4.79457 19.5101C5.90216 19.5101 6.8035 18.621 6.8035 17.5284C6.8035 17.428 6.7881 17.3323 6.77337 17.2358L13.4899 13.7024C13.8475 14.0241 14.3182 14.2256 14.8392 14.2256C15.9468 14.2256 16.8481 13.3365 16.8481 12.2439C16.8481 12.1283 16.8327 12.0166 16.8133 11.9063L24.2397 7.7857C24.5926 8.08957 25.0493 8.28047 25.5535 8.28047C26.4716 8.28047 27.2397 7.66614 27.4781 6.83514L27.4814 6.8358C27.4848 6.82391 27.4861 6.81268 27.4894 6.80079C27.5062 6.73936 27.5202 6.67793 27.5303 6.61385C27.5497 6.50618 27.5624 6.40049 27.5624 6.29876C27.5624 6.27168 27.5618 6.24526 27.5604 6.21817L34.0968 3.63931C34.4658 4.0515 34.9988 4.31705 35.5982 4.31705C36.7057 4.31705 37.6071 3.42793 37.6071 2.33535C37.6071 1.24276 36.7057 0.353638 35.5982 0.353638ZM4.79457 18.189C4.42493 18.189 4.12493 17.8924 4.12493 17.5284C4.12493 17.1645 4.42493 16.8679 4.79457 16.8679C5.16422 16.8679 5.46422 17.1645 5.46422 17.5284C5.46422 17.8924 5.16422 18.189 4.79457 18.189ZM14.8392 12.9045C14.4696 12.9045 14.1696 12.6079 14.1696 12.2439C14.1696 11.8799 14.4696 11.5833 14.8392 11.5833C15.097 11.5833 15.3147 11.7326 15.4265 11.9433C15.4452 11.9777 15.4566 12.0107 15.468 12.0424C15.4888 12.1071 15.5089 12.1725 15.5089 12.2439C15.5089 12.6079 15.2089 12.9045 14.8392 12.9045ZM25.5535 6.95933C25.1839 6.95933 24.8839 6.66273 24.8839 6.29876C24.8839 5.93479 25.1839 5.63819 25.5535 5.63819C25.9231 5.63819 26.2231 5.93479 26.2231 6.29876C26.2231 6.66273 25.9231 6.95933 25.5535 6.95933ZM35.5982 2.99591C35.2285 2.99591 34.9285 2.69932 34.9285 2.33535C34.9285 1.97137 35.2285 1.67478 35.5982 1.67478C35.9678 1.67478 36.2678 1.97137 36.2678 2.33535C36.2678 2.69932 35.9678 2.99591 35.5982 2.99591Z" fill="black"/>
</g>
<defs>
<clipPath id="clip0">
<rect width="40.1786" height="39.6342" fill="white" transform="translate(0.107056 0.353638)"/>
</clipPath>
</defs>
</svg>
