<svg width="42" height="41" viewBox="0 0 42 41" fill="none" xmlns="http://www.w3.org/2000/svg">
<g clip-path="url(#clip0)">
<path d="M21.0179 0.731689C9.94064 0.731689 0.928589 9.62163 0.928589 20.5488C0.928589 25.3346 2.65761 29.7294 5.53171 33.1577C5.53908 33.1676 5.53975 33.1802 5.54778 33.1894C7.62301 35.658 10.2293 37.5505 13.1335 38.7732C13.167 38.7871 13.1998 38.8023 13.2333 38.8161C13.4683 38.9139 13.706 39.0044 13.9444 39.0929C14.0382 39.1279 14.1319 39.1636 14.227 39.1973C14.4326 39.27 14.6395 39.3387 14.8478 39.4047C14.981 39.447 15.1143 39.4886 15.2489 39.5282C15.4331 39.5824 15.6179 39.6346 15.804 39.6841C15.9674 39.7277 16.1322 39.768 16.2969 39.807C16.4636 39.8466 16.631 39.8863 16.7991 39.9213C16.9866 39.9609 17.1761 39.9959 17.3663 40.0303C17.519 40.058 17.671 40.0871 17.825 40.1115C18.036 40.1452 18.2482 40.1716 18.4612 40.1987C18.5985 40.2159 18.7351 40.2357 18.873 40.2502C19.1141 40.2753 19.3572 40.2932 19.6009 40.3097C19.7141 40.3176 19.8266 40.3295 19.9404 40.3355C20.296 40.3553 20.6556 40.3658 21.0179 40.3658C21.3801 40.3658 21.7397 40.3553 22.0967 40.3368C22.2105 40.3308 22.323 40.3189 22.4362 40.311C22.6799 40.2938 22.923 40.2767 23.1641 40.2516C23.302 40.237 23.4386 40.2172 23.5759 40.2C23.7889 40.173 24.0011 40.1465 24.2121 40.1128C24.3654 40.0884 24.5181 40.0593 24.6708 40.0316C24.8603 39.9972 25.0498 39.9622 25.238 39.9226C25.406 39.8869 25.5728 39.848 25.7402 39.8083C25.9049 39.7687 26.0697 39.7284 26.233 39.6855C26.4192 39.6366 26.604 39.5837 26.7882 39.5296C26.9228 39.4899 27.056 39.4483 27.1893 39.406C27.3976 39.34 27.6045 39.2713 27.8101 39.1986C27.9045 39.1649 27.9982 39.1293 28.0926 39.0942C28.3317 39.0057 28.5688 38.9146 28.8038 38.8175C28.8373 38.8036 28.8701 38.7884 28.9036 38.7745C31.8072 37.5518 34.4141 35.6593 36.4893 33.1907C36.4973 33.1815 36.498 33.1683 36.5054 33.159C39.3781 29.7294 41.1072 25.3346 41.1072 20.5488C41.1072 9.62163 32.0951 0.731689 21.0179 0.731689ZM29.1587 37.2083C29.1487 37.2129 29.1393 37.2182 29.1293 37.2229C28.8902 37.3365 28.6471 37.4435 28.402 37.5479C28.3464 37.571 28.2915 37.5948 28.236 37.6179C28.0217 37.7064 27.8047 37.7903 27.5864 37.8709C27.4953 37.9046 27.4043 37.9376 27.3125 37.9693C27.119 38.0373 26.9248 38.1027 26.7286 38.1648C26.6067 38.2031 26.4842 38.2395 26.3616 38.2751C26.1875 38.3267 26.0127 38.3762 25.836 38.4224C25.6873 38.4614 25.5373 38.4971 25.3873 38.5321C25.2299 38.5691 25.0732 38.6068 24.9145 38.6398C24.7411 38.6761 24.5663 38.7072 24.3922 38.7382C24.2509 38.764 24.1103 38.791 23.9676 38.8135C23.7714 38.8439 23.5732 38.8683 23.3757 38.8928C23.2505 38.9086 23.1259 38.9271 22.9993 38.9403C22.7737 38.9641 22.546 38.9793 22.319 38.9952C22.2179 39.0018 22.1174 39.013 22.015 39.0183C21.6835 39.0355 21.3514 39.0447 21.0179 39.0447C20.6844 39.0447 20.3522 39.0355 20.0214 39.0183C19.9197 39.013 19.8192 39.0024 19.7174 38.9952C19.4897 38.98 19.2627 38.9641 19.0371 38.9403C18.9105 38.9271 18.786 38.9086 18.6607 38.8928C18.4632 38.8683 18.265 38.8439 18.0688 38.8135C17.9261 38.791 17.7855 38.764 17.6442 38.7382C17.4694 38.7072 17.2947 38.6754 17.1219 38.6398C16.9632 38.6068 16.8058 38.5691 16.6491 38.5321C16.4991 38.4964 16.3491 38.4614 16.2005 38.4224C16.0243 38.3762 15.8489 38.326 15.6748 38.2751C15.5522 38.2395 15.4297 38.2031 15.3078 38.1648C15.1116 38.1027 14.9168 38.0373 14.7239 37.9693C14.6322 37.9369 14.5411 37.9039 14.45 37.8709C14.2317 37.7903 14.0147 37.7064 13.8005 37.6179C13.7449 37.5954 13.6906 37.5716 13.6351 37.5485C13.39 37.4448 13.1469 37.3371 12.9072 37.2235C12.8971 37.2189 12.8877 37.2143 12.8777 37.209C10.5413 36.0939 8.47747 34.5112 6.8027 32.589C8.09711 27.887 11.7614 24.0967 16.4757 22.5886C16.5688 22.6448 16.6659 22.695 16.7616 22.7478C16.8179 22.7788 16.8735 22.8119 16.9304 22.8416C17.1299 22.946 17.3322 23.0437 17.5391 23.1316C17.6978 23.2003 17.8618 23.2584 18.0252 23.3179C18.0574 23.3291 18.0895 23.3417 18.1217 23.3529C19.0297 23.67 20.0014 23.8516 21.0179 23.8516C22.0344 23.8516 23.006 23.67 23.9134 23.3529C23.9456 23.3417 23.9777 23.3291 24.0098 23.3179C24.1732 23.2584 24.3373 23.2003 24.496 23.1316C24.7029 23.0437 24.9051 22.946 25.1047 22.8416C25.1616 22.8112 25.2172 22.7788 25.2735 22.7478C25.3692 22.695 25.467 22.6448 25.5607 22.5879C30.275 24.0967 33.9386 27.887 35.2337 32.5883C33.5589 34.5099 31.4951 36.0926 29.1587 37.2083ZM13.6518 15.2642C13.6518 11.2579 16.9565 7.99795 21.0179 7.99795C25.0793 7.99795 28.3839 11.2579 28.3839 15.2642C28.3839 17.8127 27.044 20.0553 25.025 21.3527C24.7612 21.5218 24.4866 21.6731 24.2047 21.8052C24.1712 21.821 24.1384 21.8375 24.1049 21.8527C22.1656 22.7227 19.8701 22.7227 17.9308 21.8527C17.8973 21.8375 17.8639 21.821 17.831 21.8052C17.5485 21.6731 17.2746 21.5218 17.0107 21.3527C14.9918 20.0553 13.6518 17.8127 13.6518 15.2642ZM36.2382 31.3312C34.7201 26.9094 31.2567 23.3357 26.8317 21.638C28.6016 20.0652 29.7232 17.7942 29.7232 15.2642C29.7232 10.5293 25.8179 6.67681 21.0179 6.67681C16.2179 6.67681 12.3125 10.5293 12.3125 15.2642C12.3125 17.7942 13.4342 20.0652 15.2047 21.638C10.7797 23.3364 7.31631 26.9094 5.79823 31.3312C3.5797 28.2933 2.26787 24.5703 2.26787 20.5488C2.26787 10.3502 10.6793 2.05283 21.0179 2.05283C31.3565 2.05283 39.7679 10.3502 39.7679 20.5488C39.7679 24.5703 38.456 28.2933 36.2382 31.3312Z" fill="black"/>
</g>
<defs>
<clipPath id="clip0">
<rect width="40.1786" height="39.6342" fill="white" transform="translate(0.928589 0.731689)"/>
</clipPath>
</defs>
</svg>
