<svg width="42" height="41" viewBox="0 0 42 41" fill="none" xmlns="http://www.w3.org/2000/svg">
<g clip-path="url(#clip0)">
<path d="M26.8773 30.6281C26.4146 30.6281 26.0402 30.9974 26.0402 31.4538V37.2338C26.0402 38.1442 25.289 38.8852 24.3661 38.8852H4.27683C3.35398 38.8852 2.60275 38.1442 2.60275 37.2338V4.20534C2.60275 3.29499 3.35398 2.55394 4.27683 2.55394H24.3661C25.289 2.55394 26.0402 3.29499 26.0402 4.20534V9.98534C26.0402 10.4418 26.4146 10.8111 26.8773 10.8111C27.34 10.8111 27.7144 10.4418 27.7144 9.98534V4.20534C27.7143 2.38372 26.2127 0.902466 24.3661 0.902466H4.27683C2.43018 0.902466 0.928589 2.38372 0.928589 4.20534V37.2338C0.928589 39.0554 2.43018 40.5366 4.27683 40.5366H24.3661C26.2127 40.5366 27.7144 39.0554 27.7144 37.2337V31.4537C27.7143 30.9974 27.34 30.6281 26.8773 30.6281Z" fill="black"/>
<path d="M40.8358 20.1107L30.7911 11.0279C30.4486 10.7198 29.9214 10.7432 29.6083 11.0786C29.296 11.4149 29.3189 11.9374 29.6598 12.2454L38.1185 19.8938H11.8103C11.3476 19.8938 10.9732 20.2631 10.9732 20.7195C10.9732 21.1759 11.3476 21.5452 11.8103 21.5452H38.1185L29.6599 29.1935C29.319 29.5016 29.2961 30.0241 29.6084 30.3603C29.7735 30.5378 29.9991 30.628 30.2256 30.628C30.4275 30.628 30.6302 30.5563 30.7912 30.4111L40.8358 21.3283C41.009 21.1719 41.1071 20.9509 41.1071 20.7195C41.1071 20.488 41.009 20.2671 40.8358 20.1107Z" fill="black"/>
</g>
<defs>
<clipPath id="clip0">
<rect width="40.1786" height="39.6342" fill="white" transform="translate(0.928589 0.902466)"/>
</clipPath>
</defs>
</svg>
