<svg width="41" height="40" viewBox="0 0 41 40" fill="none" xmlns="http://www.w3.org/2000/svg">
<g clip-path="url(#clip0)">
<path d="M34.7041 5.28182L20.4743 0.327596C20.2945 0.264662 20.0983 0.264662 19.9185 0.327596L5.68876 5.28182C5.3536 5.39871 5.12964 5.71082 5.12964 6.06079V15.9692C5.12964 28.7919 7.05717 33.4784 19.8188 39.826C19.9382 39.8848 20.0674 39.9147 20.1965 39.9147C20.3256 39.9147 20.4548 39.8849 20.5741 39.826C33.3358 33.4784 35.2633 28.7919 35.2633 15.9692V6.06079C35.2632 5.71082 35.0392 5.39879 34.7041 5.28182ZM33.5891 15.9692C33.5891 28.2508 32.0016 32.2261 20.1963 38.1632C8.39106 32.2261 6.80362 28.2508 6.80362 15.9692V6.64539L20.1964 1.98223L33.5891 6.64539V15.9692H33.5891Z" fill="black"/>
<path d="M15.1742 15.1436C15.1742 16.6273 15.8445 18.0158 16.9905 18.9536L16.0194 25.7624C15.9851 25.9995 16.057 26.2389 16.2173 26.4196C16.3759 26.6002 16.6063 26.7035 16.8483 26.7035H23.5447C23.7866 26.7035 24.0172 26.6003 24.1758 26.4196C24.336 26.239 24.4079 25.9995 24.3736 25.7624L23.4025 18.9536C24.5485 18.0158 25.2188 16.6273 25.2188 15.1436C25.2188 12.4116 22.966 10.1893 20.1965 10.1893C17.4271 10.1893 15.1742 12.4117 15.1742 15.1436ZM23.5446 15.1436C23.5446 16.2515 22.9822 17.2804 22.0422 17.8965C21.774 18.0723 21.6318 18.3843 21.6759 18.6996L22.5817 25.052H17.8111L18.7169 18.6996C18.761 18.3843 18.6188 18.0723 18.3506 17.8965C17.4106 17.2804 16.8482 16.2515 16.8482 15.1436C16.8482 13.322 18.3506 11.8407 20.1964 11.8407C22.0422 11.8407 23.5446 13.322 23.5446 15.1436Z" fill="black"/>
</g>
<defs>
<clipPath id="clip0">
<rect width="40.1786" height="39.6342" fill="white" transform="translate(0.107056 0.280518)"/>
</clipPath>
</defs>
</svg>
