<svg width="25" height="25" viewBox="0 0 25 25" fill="none" xmlns="http://www.w3.org/2000/svg">
<path d="M5.54053 15.1078L4.67031 18.3564L1.4897 18.4237C0.53916 16.6607 0 14.6435 0 12.5C0 10.4272 0.504102 8.47249 1.39766 6.75134H1.39834L4.22998 7.27048L5.47041 10.0851C5.21079 10.842 5.06929 11.6545 5.06929 12.5C5.06938 13.4176 5.2356 14.2967 5.54053 15.1078Z" fill="white"/>
<path d="M24.7816 10.1648C24.9251 10.9209 25 11.7019 25 12.5C25 13.3949 24.9059 14.2678 24.7266 15.1099C24.1181 17.9752 22.5282 20.4773 20.3256 22.2479L20.3249 22.2472L16.7583 22.0652L16.2535 18.9141C17.715 18.057 18.8572 16.7156 19.4589 15.1099H12.7748V10.1648H19.5564H24.7816Z" fill="white"/>
<path d="M20.3248 22.2473L20.3255 22.248C18.1834 23.9698 15.4622 25 12.5 25C7.73968 25 3.60096 22.3394 1.48969 18.4238L5.54051 15.1079C6.59613 17.9252 9.31385 19.9307 12.5 19.9307C13.8695 19.9307 15.1525 19.5605 16.2534 18.9142L20.3248 22.2473Z" fill="white"/>
<path d="M20.4787 2.87773L16.4292 6.19297C15.2898 5.48076 13.943 5.06934 12.5 5.06934C9.24174 5.06934 6.47318 7.16685 5.47045 10.0852L1.39833 6.75137H1.39764C3.47802 2.74038 7.66893 0 12.5 0C15.5329 0 18.3139 1.08037 20.4787 2.87773Z" fill="white"/>
</svg>
