<svg width="353" height="80" viewBox="0 0 353 80" fill="none" xmlns="http://www.w3.org/2000/svg">
<path d="M116.058 57.238H104.268C100.525 57.238 97.8894 56.5986 96.361 55.3198C94.8639 54.0098 94.1153 51.7173 94.1153 48.4423V23.9266H116.058V29.728H100.619V37.5413H111.426L110.958 43.3427H100.619V47.9745C100.619 49.2845 100.915 50.189 101.507 50.688C102.1 51.1871 103.176 51.4366 104.736 51.4366H116.058V57.238ZM142.982 57.238H133.063C129.32 57.238 126.607 56.5207 124.922 55.0859C123.269 53.6199 122.443 51.2495 122.443 47.9745V23.9266H128.946V47.9745C128.946 49.2845 129.242 50.189 129.835 50.688C130.427 51.1871 131.503 51.4366 133.063 51.4366H142.982V57.238ZM154.669 57.238H148.166V23.9266H154.669V57.238ZM184.082 29.728H175.146V57.238H168.643V29.728H159.754V23.9266H184.082V29.728ZM211.091 57.238H199.301C195.558 57.238 192.923 56.5986 191.395 55.3198C189.897 54.0098 189.149 51.7173 189.149 48.4423V23.9266H211.091V29.728H195.652V37.5413H206.46L205.992 43.3427H195.652V47.9745C195.652 49.2845 195.948 50.189 196.541 50.688C197.134 51.1871 198.21 51.4366 199.769 51.4366H211.091V57.238Z" fill="white"/>
<path d="M259.331 23.9266L250.395 57.238H244.968L238.839 37.0266L232.71 57.238H227.283L218.394 23.9266H225.178L230.324 44.9334L235.424 27.5759C235.985 24.9871 237.17 23.6927 238.98 23.6927C239.884 23.6927 240.57 24.0358 241.038 24.722C241.506 25.377 241.927 26.3283 242.301 27.5759L247.354 44.9334L252.547 23.9266H259.331ZM287.904 39.0384V41.5648C287.904 47.1479 286.844 51.2027 284.723 53.7291C282.633 56.2555 279.264 57.5188 274.617 57.5188C269.97 57.5188 266.601 56.2555 264.511 53.7291C262.453 51.2027 261.424 47.1011 261.424 41.4245V38.9916C261.424 33.814 262.468 29.962 264.558 27.4355C266.679 24.9091 270.016 23.6459 274.57 23.6459C279.155 23.6459 282.524 24.9247 284.676 27.4823C286.828 30.0399 287.904 33.892 287.904 39.0384ZM281.401 41.4245V39.6934C281.401 36.6991 281.027 34.313 280.278 32.5352C279.405 30.4766 277.533 29.4473 274.664 29.4473C271.763 29.4473 269.876 30.4766 269.003 32.5352C268.285 34.2195 267.927 36.6055 267.927 39.6934V41.4245C267.927 45.448 268.488 48.1616 269.611 49.5652C270.048 50.1578 270.687 50.6724 271.529 51.1091C272.403 51.5146 273.432 51.7173 274.617 51.7173C275.834 51.7173 276.863 51.5146 277.705 51.1091C278.547 50.7036 279.202 50.2046 279.67 49.612C280.138 49.0193 280.496 48.2396 280.746 47.2727C281.183 45.7443 281.401 43.7949 281.401 41.4245ZM314.13 57.238H304.212C300.469 57.238 297.755 56.5207 296.071 55.0859C294.418 53.6199 293.591 51.2495 293.591 47.9745V23.9266H300.094V47.9745C300.094 49.2845 300.391 50.189 300.983 50.688C301.576 51.1871 302.652 51.4366 304.212 51.4366H314.13V57.238ZM341.257 29.728H329.514C328.141 29.728 327.174 29.9932 326.613 30.5234C326.083 31.0536 325.817 31.9738 325.817 33.2838V37.9155H338.029L337.561 43.717H325.817V57.238H319.314V30.7105C319.314 28.2465 319.844 26.4998 320.905 25.4705C321.997 24.4413 323.852 23.9266 326.472 23.9266H341.257V29.728Z" fill="black"/>
<path fill-rule="evenodd" clip-rule="evenodd" d="M38.2799 5.85414e-07C38.3103 -0.000798599 38.7712 0.816767 39.3048 1.81815C39.8376 2.81873 40.3782 3.87125 40.5056 4.15736C40.6329 4.44347 40.9621 5.23386 41.2376 5.91557C41.5123 6.59727 41.935 7.72972 42.1767 8.433C42.4176 9.13628 42.7528 10.1792 42.9209 10.7506C43.089 11.3221 43.2285 11.9694 43.2293 12.1892C43.2302 12.4089 43.1505 12.8765 43.0509 13.2281C42.9521 13.5797 42.4652 14.8385 41.9697 16.0253C41.4741 17.212 41.0869 18.1918 41.1094 18.203C41.1328 18.2142 41.4533 17.8186 41.8233 17.3239C42.1932 16.8292 42.622 16.245 42.7754 16.0253C43.0023 15.6992 43.1791 15.1677 43.7335 13.1482C44.1078 11.7856 44.4396 10.626 44.4717 10.5708C44.5037 10.5157 44.5981 10.4701 44.6813 10.4693C44.7688 10.4685 45.202 10.8641 45.7071 11.4084C46.1879 11.9254 47.1252 12.9788 47.7915 13.7476C48.4568 14.5172 49.3907 15.6496 49.8663 16.265C50.3428 16.8804 50.7561 17.4198 50.7864 17.4638C50.8158 17.5077 50.6868 18.2989 50.5005 19.222C50.3073 20.1746 50.1132 20.9243 50.0526 20.9562C49.9928 20.9874 49.6809 21.0681 49.3595 21.136C49.0381 21.204 48.5547 21.359 48.2861 21.4797C47.9916 21.6124 47.6052 21.8897 47.3098 22.179C46.9693 22.513 46.738 22.8407 46.5474 23.2579C46.3967 23.5879 46.2121 24.073 46.1376 24.3368C46.0631 24.6005 46.0016 24.9777 46.0016 25.1759C46.0016 25.3741 46.0631 25.7513 46.1376 26.0151C46.2121 26.2788 46.3776 26.6704 46.5058 26.8854C46.634 27.0996 46.9537 27.4608 47.2153 27.6862C47.4882 27.9219 48.034 28.2584 48.4932 28.475C49.2278 28.821 49.3465 28.8522 49.9226 28.8546C50.465 28.8562 50.633 28.8186 51.1572 28.582C51.5696 28.395 51.9161 28.1569 52.2401 27.8372C52.5017 27.5791 52.8431 27.1443 52.9981 26.871C53.1532 26.5985 53.3092 26.3739 53.3447 26.3731C53.3802 26.3723 53.9069 27.253 54.5142 28.3311C55.1215 29.4092 55.6041 30.3355 55.5859 30.3906C55.5686 30.4457 55.3632 30.556 55.1311 30.6359C54.8989 30.7159 54.3773 30.9812 53.9728 31.2257C53.5682 31.4703 52.8465 31.9658 52.37 32.327C51.8936 32.6883 50.9189 33.4858 50.2042 34.0988C49.4895 34.7126 48.5348 35.6117 48.0817 36.0976C47.6286 36.5835 47.0377 37.2644 46.7683 37.612C46.4989 37.9589 45.9791 38.6741 45.6135 39.2016C45.2479 39.7291 44.9187 40.1966 44.8806 40.2406C44.8433 40.2845 44.2715 40.4971 43.6097 40.7137C42.9486 40.9294 41.9489 41.2619 41.3892 41.4529C40.8296 41.6431 40.3028 41.799 40.2197 41.7982C40.1365 41.7982 39.6981 41.6247 39.245 41.4138C38.7244 41.1708 38.2072 40.995 37.8373 40.935C37.5158 40.8823 37.2516 40.8128 37.2507 40.78C37.249 40.7472 37.5782 40.0911 37.9819 39.3215C38.3848 38.5527 38.837 37.5817 38.986 37.1637C39.1342 36.7457 39.3507 36.0448 39.466 35.6053C39.5812 35.1657 39.7198 34.4465 39.7744 34.0069C39.8333 33.5338 39.8541 32.6539 39.8264 31.8491C39.7943 30.9181 39.7233 30.2451 39.5994 29.7113C39.4998 29.2829 39.4382 28.8961 39.4616 28.8522C39.4859 28.8066 39.7198 28.8801 40.0031 29.0224C40.2769 29.1607 41.008 29.5914 41.6275 29.9798C42.2469 30.369 43.0855 30.938 44.2265 31.7996L44.2889 31.3448C44.3226 31.0947 44.3287 30.6383 44.3027 30.3307C44.2767 30.023 44.1979 29.43 44.1286 29.012C44.0593 28.594 43.9033 27.8931 43.7829 27.4536C43.6616 27.014 43.4676 26.4027 43.3506 26.095C43.2337 25.7873 42.9772 25.2838 42.7797 24.9761C42.583 24.6684 42.2382 24.165 42.0147 23.8573C41.7903 23.5496 41.417 23.1068 41.1839 22.8743C40.8235 22.5122 40.6658 22.4219 40.1114 22.2565C39.7545 22.1494 39.453 22.0703 39.4426 22.0807C39.433 22.0911 39.7068 22.3868 40.0516 22.7384C40.3973 23.09 40.879 23.6295 41.1215 23.9372C41.365 24.2449 41.741 24.8019 41.9575 25.1759C42.1741 25.5499 42.4877 26.1605 42.6549 26.5345C42.8222 26.9086 43.0751 27.6278 43.2163 28.1329C43.3584 28.638 43.497 29.2949 43.5256 29.5914C43.5637 29.9958 43.5499 30.1301 43.4684 30.1277C43.4087 30.1261 42.9504 29.8456 42.4505 29.5043C41.9506 29.1639 41.229 28.7027 40.8478 28.4797C40.4666 28.2568 39.7068 27.8372 39.1584 27.5463C38.61 27.2554 38.1526 27.026 38.1405 27.0356C38.1292 27.046 38.1795 27.2154 38.2531 27.4136C38.3259 27.6118 38.4601 28.0434 38.5502 28.3727C38.6412 28.7027 38.7755 29.3501 38.8491 29.8112C38.9375 30.361 38.9834 31.2297 38.9843 32.3286C38.9843 33.3292 38.9306 34.4425 38.8509 35.0858C38.7478 35.9178 38.6351 36.3845 38.3605 37.1237C38.1647 37.6512 37.7567 38.6038 37.4535 39.2416C37.1502 39.8793 36.8505 40.4723 36.7881 40.5602C36.7257 40.6481 36.3073 40.8879 35.8585 41.0925C35.3032 41.3458 34.9264 41.5816 34.6751 41.8317C34.4724 42.0331 34.1735 42.4591 34.0115 42.778C33.8486 43.0968 33.5463 43.7138 33.3401 44.1494C33.0967 44.6624 32.8723 45.0109 32.7042 45.138C32.5613 45.245 30.4751 46.3671 28.0693 47.6306C25.6635 48.8941 22.3298 50.6124 20.6621 51.4483C18.9944 52.2843 16.7142 53.4103 15.5941 53.9498C14.4739 54.4892 12.2717 55.5178 10.6993 56.2362C9.12686 56.9539 7.79183 57.5413 7.73205 57.5421C7.67228 57.5421 7.6229 57.4622 7.62116 57.3631C7.6203 57.264 7.83948 56.842 8.10891 56.424C8.37834 56.0061 10.0114 53.7052 11.7371 51.3093C13.4629 48.9133 14.979 46.8546 15.1046 46.7339C15.2311 46.6133 16.1511 46.0195 17.15 45.4153C18.1489 44.8111 19.3652 44.083 19.8521 43.7969C20.3528 43.5036 21.0243 43.0161 21.3942 42.6781C21.7546 42.3488 22.2493 41.8629 22.4936 41.5992C22.7379 41.3354 22.9709 41.1492 23.0125 41.186C23.0541 41.2228 23.1017 41.6903 23.1182 42.2249C23.1347 42.7596 23.1043 43.737 23.0506 44.3963C22.9969 45.0556 22.9319 45.7749 22.86 46.3943L23.0835 46.1545C23.2057 46.0227 23.5566 45.5367 23.8632 45.0756C24.1699 44.6145 24.6507 43.7873 24.9332 43.2375C25.2147 42.6885 25.6106 41.8605 25.8125 41.3994C26.0152 40.9382 26.2171 40.5243 26.2621 40.4803C26.3158 40.4276 26.3722 40.4411 26.4259 40.5203C26.4709 40.5866 26.5082 40.8919 26.5099 41.1996C26.5116 41.5073 26.5463 41.8125 26.587 41.8789C26.6459 41.9724 27.0202 41.6663 28.2755 40.5003C29.1626 39.6763 29.9181 39.021 29.9536 39.0434C29.9891 39.0666 29.9458 39.2192 29.8574 39.383C29.7691 39.5469 29.3896 40.0767 29.0153 40.5602C28.6411 41.0437 27.8822 41.9604 27.3286 42.5981C26.775 43.2359 26.2864 43.8201 26.2431 43.8968C26.1677 44.0287 26.1885 44.0295 26.6182 43.9104C26.8686 43.8409 27.4239 43.6563 27.8527 43.4996C28.2816 43.3438 29.0223 43.0369 29.4988 42.8179C29.9752 42.5989 30.696 42.2209 31.1015 41.978C31.5069 41.735 32.1498 41.3171 32.5309 41.0493C32.9121 40.7808 33.5168 40.2917 33.8738 39.9616C34.2316 39.6316 34.7626 39.0554 35.0537 38.6821C35.3457 38.3089 35.752 37.7511 35.9564 37.4434C36.1609 37.1357 36.497 36.5515 36.7032 36.1447C36.9103 35.7379 37.1996 35.0371 37.346 34.5863C37.5722 33.8918 37.6207 33.5905 37.6614 32.6083C37.6995 31.6957 37.6778 31.3049 37.5618 30.7702C37.4803 30.3962 37.2897 29.7529 37.1381 29.3397C36.9865 28.9265 36.5308 27.9755 36.1262 27.225C35.7217 26.4754 35.3413 25.852 35.2816 25.8384C35.22 25.8257 35.0043 26.1269 34.7834 26.5345C34.5686 26.9301 34.3944 27.3169 34.3962 27.3937C34.3979 27.4704 34.6526 27.8036 34.9627 28.1329C35.3006 28.4925 35.6809 29.02 35.914 29.4516C36.1271 29.8472 36.3801 30.4585 36.4771 30.8102C36.5741 31.1618 36.6755 31.7908 36.7032 32.2087C36.7413 32.7882 36.7093 33.2045 36.5681 33.967C36.4658 34.5168 36.2813 35.2712 36.1574 35.6452C36.0335 36.0193 35.7113 36.7745 35.4418 37.3235C35.1724 37.8734 34.8363 38.46 34.6942 38.6278C34.553 38.7964 34.1449 39.1529 33.7871 39.4214C33.4302 39.6899 32.6505 40.2038 32.0545 40.5634C31.4593 40.9239 30.5228 41.4521 29.9752 41.7382C29.4277 42.0235 28.7641 42.3552 28.5025 42.4735C28.2408 42.5926 27.9775 42.6693 27.9177 42.6437C27.8449 42.6133 27.922 42.4815 28.1559 42.2385C28.3465 42.0403 28.7407 41.5824 29.0327 41.2196C29.3238 40.8567 29.7907 40.1287 30.0697 39.6012C30.3495 39.0737 30.7368 38.193 30.9308 37.6432C31.1249 37.0942 31.2722 36.6378 31.2574 36.629C31.2436 36.621 31.0296 36.8368 30.7827 37.1085C30.5358 37.3811 30.029 37.8933 29.6564 38.2482C29.2839 38.6022 28.7251 39.0649 28.4158 39.2751C28.1066 39.4861 27.7063 39.7259 27.5278 39.8098C27.3494 39.8929 27.1735 39.9464 27.138 39.9289C27.1025 39.9113 27.0479 39.2727 27.0176 38.5103C26.9873 37.7479 26.9249 37.0342 26.879 36.9239C26.8001 36.7377 26.7906 36.7353 26.7429 36.884C26.7144 36.9719 26.6277 37.3851 26.5506 37.803C26.4744 38.221 26.3358 38.8588 26.2439 39.2216C26.1521 39.5844 25.9364 40.2853 25.7648 40.78C25.5933 41.2747 25.2823 42.0028 25.0726 42.3984C24.863 42.7939 24.5156 43.3334 24.2999 43.5971C24.085 43.8609 23.8598 44.0766 23.8017 44.0766C23.7342 44.0766 23.7047 43.9879 23.7229 43.8369C23.7385 43.705 23.7575 43.0936 23.7809 41.3594L23.4708 40.76C23.3001 40.4308 22.9588 39.9361 22.7127 39.6611C22.4667 39.3862 22.0015 38.9635 21.6801 38.7205C21.3587 38.4783 20.8804 38.1747 20.6188 38.0468C20.3572 37.9189 19.9673 37.7767 19.7525 37.7311C19.438 37.6648 19.0949 37.6872 17.9765 37.8502C17.2141 37.9605 15.3038 38.2458 13.7314 38.4831C12.1157 38.7277 10.4203 38.9379 8.79332 39.0162L7.75371 38.5415C7.18193 38.2809 6.22723 37.8246 5.63119 37.5265C5.03601 37.2292 4.35767 36.8736 4.12549 36.7353C3.71225 36.49 3.70359 36.4772 3.75384 36.1647C3.78156 35.9889 3.87426 35.4223 4.1151 33.9662L3.42203 33.3372L3.50866 33.7656C3.59356 34.1875 3.58837 34.2067 3.16213 34.9795C2.92389 35.4119 2.67005 35.7755 2.59901 35.7883C2.52797 35.8011 2.09827 35.5981 1.64604 35.336C1.19381 35.0746 0.676609 34.7494 0.498144 34.6135C0.183663 34.3745 0.171535 34.3458 0.129085 33.7472C0.103961 33.4067 0.0667081 32.948 0.00693085 32.3286L0.544925 32.0577C0.841212 31.9083 1.72661 31.4615 2.51238 31.0643C3.29814 30.6679 4.72153 29.9303 5.6745 29.4252C6.62747 28.9209 7.75804 28.3095 8.18688 28.0666C8.61572 27.8236 9.23948 27.4368 9.57302 27.2074C9.90656 26.9773 10.7582 26.2916 11.466 25.6826C12.1738 25.0744 12.8868 24.4686 13.3511 24.097L13.6275 24.3536C13.7834 24.4982 14.2651 24.7547 14.7277 24.9402C15.1808 25.1216 15.8046 25.3493 16.1139 25.4452C16.4231 25.5419 17.3007 25.9479 18.0631 26.3467C18.8255 26.7455 19.7802 27.2378 20.1856 27.4416C20.922 27.8124 20.922 27.8124 21.3119 27.7029C21.5267 27.643 22.2865 27.3961 24.3007 26.7143L26.2067 26.8198C27.2549 26.8774 28.4825 26.9445 28.9356 26.9693C29.3887 26.9933 29.7197 26.9965 29.672 26.9773C29.6244 26.9573 28.7858 26.815 27.8094 26.66C26.833 26.5058 25.4686 26.274 23.521 25.9136L22.698 26.1533C22.2449 26.2844 21.4851 26.4954 20.1423 26.8502L19.3193 26.4442C18.8662 26.2205 18.446 25.9967 18.3845 25.9463C18.323 25.8968 18.3031 25.8281 18.3412 25.7953C18.3785 25.7625 18.809 25.8432 19.2976 25.9751C20.1787 26.2133 20.1874 26.2141 20.4239 26.0638C20.5547 25.9815 20.9783 25.5947 22.0682 24.4966L25.0804 24.7547L25.6098 24.3863C25.9009 24.1833 26.7689 23.5048 27.5374 22.8783C28.3067 22.2517 28.9356 21.721 28.9356 21.6995C28.9356 21.6779 28.4973 21.9552 27.961 22.3164C27.4248 22.6777 26.4891 23.289 24.7772 24.3767L24.1058 24.2265C23.7368 24.1442 23.424 24.0459 23.4101 24.0067C23.3972 23.9684 23.495 23.914 23.6267 23.8852C23.7593 23.8573 24.1821 23.5696 24.5667 23.2459C24.9514 22.923 25.6141 22.3908 26.0395 22.0631C26.4649 21.7362 26.8521 21.4341 26.8998 21.3926C26.9552 21.3438 26.9396 21.3406 26.8564 21.3838C26.7854 21.4213 26.3955 21.6659 25.9901 21.928C25.5847 22.1902 24.9999 22.577 24.1275 23.1716L22.1349 23.4129C21.039 23.5456 20.0254 23.6862 19.8824 23.7254C19.7395 23.7646 19.399 23.9004 19.1252 24.0267C18.7934 24.1809 18.5994 24.2305 18.5405 24.1769C18.4816 24.1234 18.7042 23.8349 19.2197 23.2978C19.6416 22.8583 20.974 21.6355 22.1817 20.5806C23.3885 19.5257 24.8075 18.3029 25.3343 17.8634C25.8619 17.4238 26.5974 16.83 26.9682 16.5447C27.3399 16.2594 27.6413 16.0165 27.6396 16.0053C27.6379 15.9941 27.3927 16.1363 27.0947 16.3202C26.7967 16.504 25.5396 17.3024 24.3007 18.0935C23.0619 18.8847 21.5995 19.8286 21.052 20.1906C20.5045 20.5534 19.9517 20.933 19.8252 21.0345C19.6988 21.1368 19.3254 21.5612 18.9953 21.9792C18.6652 22.3972 18.1489 23.0797 17.8483 23.4976C17.5476 23.9156 17.1613 24.4143 16.9897 24.6077C16.6943 24.9394 16.6579 24.9553 16.3304 24.9114C16.1399 24.8866 15.672 24.7747 15.2908 24.6636C14.9097 24.5526 14.5103 24.4063 14.4028 24.3392C14.2954 24.272 14.1299 24.073 14.0347 23.8972C13.9394 23.7214 13.8614 23.5056 13.8614 23.4177C13.8614 23.3298 14.039 22.8535 14.2564 22.3588C14.473 21.8641 14.8438 20.9019 15.0803 20.221C15.316 19.5401 15.5871 18.8656 15.6816 18.7225C15.776 18.5794 16.3123 18.1463 16.8719 17.7595C17.4316 17.3727 18.5136 16.639 20.6621 15.2021L21.7788 13.336C22.3931 12.3098 23.0168 11.2925 23.165 11.0759C23.3816 10.7594 23.8728 10.379 25.6652 9.13788C26.892 8.28835 27.935 7.59385 27.9827 7.59385C28.0303 7.59385 28.0693 7.6482 28.0693 7.71373C28.0693 7.77926 27.7384 8.3371 27.3329 8.95247C26.9275 9.56784 26.6061 10.0881 26.6182 10.1081C26.6303 10.1281 28.0243 9.36245 29.7153 8.40583C31.4064 7.45 33.25 6.38149 33.8105 6.03225C34.4672 5.62306 34.8588 5.42487 34.909 5.47601C34.9575 5.52556 34.7955 5.93874 34.4854 6.55491C34.2099 7.10475 33.4337 8.59683 32.7605 9.87153C32.0882 11.1462 31.5572 12.198 31.5797 12.2091C31.6022 12.2203 31.9921 11.9502 32.4452 11.6098C32.8991 11.2693 33.3072 10.9009 33.3531 10.7906C33.3981 10.6811 33.5679 10.2487 33.73 9.83157C33.892 9.4144 34.3078 8.44339 34.6535 7.67377C34.9991 6.90496 35.6627 5.43046 36.1288 4.39712C36.5941 3.36377 37.2178 1.99716 37.5132 1.36021C37.8095 0.722464 38.0902 0.156641 38.1379 0.101497C38.1855 0.0463533 38.2496 0.00079977 38.2799 5.85414e-07ZM37.6016 7.55389C37.4587 8.74068 37.2802 10.0354 37.2057 10.431C37.1303 10.8266 37.0134 11.2581 36.9458 11.39C36.8782 11.5218 36.6157 11.8639 36.3619 12.1492C36.108 12.4345 35.0736 13.4511 34.0635 14.4069L32.2277 16.1451C32.6306 16.7022 32.9329 16.9915 33.159 17.1465C33.4467 17.3431 33.6225 17.4126 33.7438 17.3767C33.8391 17.3479 34.3364 17.0954 34.8484 16.8148C35.3604 16.5343 35.8377 16.305 35.9097 16.305C35.9902 16.305 36.0249 16.3585 36.0015 16.4448C35.9807 16.5215 35.8213 16.9987 35.6471 17.5037C35.473 18.0088 35.3439 18.4716 35.3604 18.5315C35.3803 18.6058 35.5345 18.5355 35.8447 18.3117L36.2995 17.9833C36.3627 18.386 36.4121 18.7009 36.4494 18.9423C36.4918 19.2132 36.5603 19.3818 36.6287 19.3818C36.6894 19.3818 36.8522 19.202 36.99 18.9822L37.2403 18.5826C37.3842 18.9231 37.4691 19.1213 37.521 19.242C37.6137 19.4546 37.6345 19.4306 38.1405 18.5027C38.4281 17.9753 38.9652 16.9323 39.3334 16.1851C39.7016 15.4379 40.1105 14.5388 40.2413 14.1871C40.4519 13.6245 40.4709 13.4998 40.3955 13.1482C40.3488 12.9284 39.8316 11.1486 39.2476 9.19222C38.6629 7.23582 38.1604 5.51437 38.1301 5.36653C38.0998 5.21868 38.0495 5.08202 38.0183 5.06363C37.9871 5.04525 37.9386 5.11239 37.9109 5.21308C37.8832 5.31378 37.7437 6.36711 37.6016 7.55389ZM13.125 26.3204C12.7915 26.5857 12.2067 26.9877 11.8255 27.2138C11.4443 27.44 10.6256 27.8788 10.0062 28.1888C9.38676 28.4989 8.4901 28.9409 8.01361 29.171C7.53713 29.402 6.50359 29.9079 5.71782 30.2963C4.93205 30.6847 4.2104 31.0595 4.1151 31.129C4.0198 31.1994 4.17574 31.1514 4.46163 31.0228C4.74752 30.8941 5.6052 30.5281 6.36757 30.2092C7.12995 29.8903 8.02661 29.5219 8.36015 29.3916C8.69369 29.2614 9.20049 29.0656 9.48639 28.9569C9.77228 28.8474 10.2791 28.6716 10.6126 28.5645C10.9462 28.4582 11.3655 28.3711 11.5439 28.3719C11.7224 28.3719 12.2491 28.4606 12.7135 28.5685C13.1917 28.6787 14.0849 28.9864 14.771 29.2773C15.4381 29.5594 16.6467 30.0781 17.4567 30.4298C18.2667 30.7814 19.0655 31.1059 19.2327 31.1514C19.4328 31.2058 19.6684 31.2082 19.9257 31.1578C20.1406 31.1155 20.8519 30.9388 21.5068 30.7654C22.5377 30.4929 22.8115 30.4513 23.5427 30.4537C24.0071 30.4561 24.6603 30.4881 24.9938 30.5265C25.3274 30.564 25.7752 30.6168 25.9901 30.6439L26.3799 30.6935C25.7752 30.5025 24.9765 30.2835 24.2141 30.0837C23.4517 29.8831 22.4286 29.6322 21.94 29.5251L21.052 29.3317C19.2699 29.9023 18.9191 29.9758 18.6262 29.9526C18.4114 29.9359 18.0804 29.8504 17.8899 29.7624C17.6993 29.6745 16.9196 29.2829 16.1572 28.8929C15.3948 28.5029 14.4791 28.033 14.1213 27.8484C13.7314 27.647 13.4603 27.4528 13.4429 27.3633C13.4265 27.281 13.436 27.1331 13.4646 27.034C13.4923 26.9349 13.7297 26.5665 13.9913 26.2149C14.253 25.8632 14.4548 25.5611 14.4392 25.5427C14.4245 25.5252 14.2582 25.5843 14.071 25.6746C13.8848 25.7641 13.4585 26.055 13.125 26.3204ZM1.49183 33.6233C1.56634 33.764 1.63131 34.0069 1.63651 34.1628C1.64171 34.3186 1.6703 34.5096 1.69975 34.5863C1.74567 34.7046 1.77772 34.6894 1.91547 34.4864C2.0047 34.3546 2.08441 34.1691 2.0922 34.0732C2.10173 33.955 1.98824 33.8159 1.73094 33.6337L1.35582 33.3676L1.49183 33.6233ZM24.9808 0.241354C25.0354 0.240555 25.7068 0.825559 26.4735 1.54003C27.2394 2.2545 28.7303 3.67465 29.7873 4.69681C31.4385 6.29438 31.6923 6.5725 31.5996 6.68278C31.5399 6.75231 30.7705 7.26219 29.8886 7.81363C29.0067 8.36587 28.2174 8.83019 28.1343 8.84538C28.0511 8.86056 27.9827 8.85497 27.9827 8.83259C27.9827 8.81021 28.1776 8.32511 28.4158 7.75369C28.6541 7.18227 28.8291 6.69717 28.8057 6.67479C28.7823 6.65241 28.3041 6.90895 27.7444 7.24381C27.1848 7.57947 26.2682 8.15488 25.7085 8.52251C25.1489 8.89093 24.6516 9.19222 24.604 9.19222C24.5563 9.19222 24.5364 9.09312 24.5589 8.97245C24.5823 8.85177 24.6837 7.40445 24.785 5.75573C24.902 3.85127 24.9522 2.30005 24.9245 1.50007C24.8925 0.580209 24.9072 0.241354 24.9808 0.241354ZM25.2892 3.66346C25.2476 4.44107 25.174 5.43605 25.1272 5.87561C25.0804 6.31516 25.0406 6.84582 25.0397 7.0544C25.038 7.28137 25.0718 7.41803 25.1238 7.39406C25.1714 7.37168 25.2693 7.39006 25.3403 7.43402C25.4365 7.49316 25.485 7.47797 25.5266 7.37408C25.5578 7.29736 25.6453 7.17029 25.7215 7.09197C25.7978 7.01365 25.9286 6.95051 26.0118 6.95211C26.0949 6.95371 26.1634 6.90975 26.1625 6.85461C26.1625 6.79946 26.023 5.71177 25.8524 4.43707C25.6817 3.16237 25.5335 2.10825 25.5214 2.09386C25.5101 2.08028 25.4703 2.10985 25.4339 2.1602C25.3967 2.20975 25.3317 2.88666 25.2892 3.66346ZM51.6397 18.7161C51.6822 18.7305 52.1924 19.4258 52.7738 20.2609C53.3542 21.0961 54.5272 22.8039 55.3806 24.0571C56.233 25.3102 57.4061 27.1036 57.9856 28.0434C58.5903 29.0232 59.1145 29.7832 59.2141 29.824C59.3094 29.8623 59.4515 29.9926 59.5303 30.1125C59.6092 30.2324 60.0527 31.0859 60.5171 32.0089C60.9806 32.932 61.6121 34.2083 61.9214 34.8461C62.2298 35.4838 62.5755 36.2294 62.689 36.5044C62.8033 36.7793 62.896 37.0582 62.896 37.1237C62.896 37.1893 62.8276 37.2764 62.7444 37.3171C62.6613 37.3571 61.8712 37.4474 60.9901 37.5177C60.109 37.5873 58.5877 37.7367 57.6114 37.8494C56.635 37.9621 54.9976 38.1938 53.9728 38.3649C52.9479 38.5359 51.3105 38.8396 50.3342 39.041C49.3578 39.2416 48.0314 39.5325 47.3886 39.6875C46.7458 39.8426 46.1705 39.9496 46.1108 39.9257C46.0293 39.8921 46.0493 39.7954 46.1879 39.5413C46.2901 39.3543 46.6704 38.842 47.0325 38.4024C47.4025 37.9541 48.7375 36.6258 50.0743 35.3767C51.385 34.1516 52.7686 32.9192 53.1498 32.6371C53.5309 32.3558 54.1356 31.9858 54.4926 31.8163C54.8504 31.6461 55.4152 31.4319 55.7488 31.3392C56.0823 31.2465 56.5415 31.1258 57.1817 30.97L56.6861 30.2907C56.4132 29.9167 55.8952 29.1623 55.5339 28.6124C55.1726 28.0634 54.4986 26.9213 54.0351 26.075C53.5717 25.2287 53.1636 24.5366 53.1281 24.5374C53.0926 24.5374 52.9721 24.8163 52.8613 25.1567C52.7504 25.4972 52.4775 26.043 52.2548 26.3691C52.0322 26.696 51.7333 27.0444 51.5903 27.1435C51.4474 27.2426 51.0965 27.4208 50.8106 27.5407C50.348 27.7341 50.2241 27.7525 49.6844 27.7093C49.3509 27.6822 48.9238 27.6134 48.7358 27.5567C48.5469 27.4999 48.196 27.2882 47.9561 27.0868C47.6632 26.8414 47.4354 26.5497 47.2673 26.2077C47.0741 25.8145 47.0057 25.5372 46.9736 25.0161C46.9459 24.5757 46.9702 24.2241 47.0429 24.0171C47.1045 23.8413 47.3011 23.4816 47.4796 23.2179C47.6589 22.9542 47.9552 22.6417 48.138 22.5234C48.3217 22.4043 48.579 22.2701 48.7098 22.2237C48.8406 22.1774 49.1724 22.1398 49.4462 22.1398C49.7199 22.1406 50.1973 22.1958 50.5074 22.2621C50.8176 22.3292 51.1286 22.4003 51.2005 22.4203C51.3131 22.4515 51.3304 22.2349 51.3322 20.7996C51.3339 19.6024 51.366 19.0789 51.4483 18.9159C51.5106 18.7912 51.5964 18.7017 51.6397 18.7161ZM48.9636 23.3554C48.8059 23.4992 48.6041 23.7254 48.5148 23.8573C48.4256 23.9891 48.3113 24.268 48.261 24.4766C48.1865 24.7827 48.1943 24.9138 48.3035 25.1559C48.3771 25.3206 48.5235 25.5419 48.6283 25.6466C48.7323 25.7521 48.9931 25.9407 49.2079 26.0678C49.4678 26.2205 49.713 26.298 49.9443 26.2988C50.1938 26.3004 50.4095 26.2276 50.7171 26.0382C51.0082 25.8584 51.2248 25.6362 51.4032 25.3358C51.5825 25.0321 51.6631 24.7851 51.6631 24.5366C51.6631 24.3384 51.5912 24.0515 51.5037 23.8972C51.4153 23.743 51.223 23.5176 51.0766 23.3953C50.9302 23.2731 50.6157 23.1196 50.3775 23.0549C50.1392 22.9901 49.9244 22.9406 49.901 22.9454C49.8776 22.9502 49.7208 22.9854 49.5545 23.0237C49.3881 23.0621 49.1222 23.2107 48.9636 23.3554ZM21.8967 23.6655C21.9564 23.6615 22.0249 23.6934 22.0483 23.7374C22.0717 23.7813 21.7702 24.1657 21.3769 24.5909C20.9835 25.0169 20.5582 25.4748 20.2021 25.8552L19.2621 25.6011C18.7458 25.4612 18.0787 25.2998 17.7807 25.2415C17.4645 25.1799 17.2384 25.0944 17.2392 25.0361C17.2401 24.9809 17.4645 24.8794 17.7382 24.8107C18.012 24.742 19.036 24.4575 20.0124 24.1793C20.9887 23.9012 21.8369 23.6703 21.8967 23.6655ZM56.9183 39.4933C58.2291 39.4893 59.6906 39.5189 60.1671 39.5588C60.6436 39.5988 61.3453 39.6907 61.7265 39.7634C62.1077 39.837 62.9073 40.032 63.5025 40.1982C64.0985 40.3636 64.7413 40.5618 64.9319 40.6369C65.1303 40.7161 65.7983 40.8232 66.4913 40.8871C67.1584 40.9486 68.192 41.0373 68.7871 41.0845C69.3832 41.1316 69.8995 41.186 69.935 41.2052C69.9705 41.2243 70 41.3474 70 41.4793C70 41.6112 69.9064 41.9796 69.7912 42.2985C69.6769 42.6173 69.3416 43.3813 69.047 43.9967C68.7525 44.6121 68.1616 45.7813 67.7345 46.5941C67.3066 47.4068 66.9401 48.0814 66.9193 48.0925C66.8985 48.1037 66.6464 47.9239 66.3596 47.6929C66.0729 47.462 65.5765 47.1263 65.2551 46.9473C64.9345 46.7683 64.3801 46.5102 64.0223 46.3735C63.6653 46.2376 62.6318 45.9291 61.7265 45.6878C60.8212 45.4472 59.6906 45.1683 59.2141 45.0684C58.4803 44.9134 58.1095 44.8862 56.7884 44.8886C55.475 44.891 55.0314 44.9254 53.9728 45.1068C53.2814 45.2251 52.0348 45.48 51.2005 45.6734C50.3671 45.8668 48.5928 46.3487 47.2587 46.7451C45.9245 47.1415 44.599 47.5411 44.3131 47.633C44.0272 47.7257 43.3835 47.9079 42.8837 48.0374C42.3838 48.1677 41.896 48.2732 41.8007 48.2716C41.6838 48.27 41.4118 48.0046 40.9604 47.4516C40.5939 47.0017 40.1157 46.3463 39.8991 45.9947C39.6817 45.643 39.4261 45.1396 39.3308 44.8758C39.2355 44.6121 39.1575 44.2972 39.1575 44.1765C39.1584 44.0559 39.2165 43.8489 39.2884 43.717C39.3603 43.5851 39.5257 43.4269 39.6566 43.3654C39.7874 43.3046 40.6944 42.9953 41.6708 42.6789C42.6472 42.3624 43.9146 41.9484 44.4864 41.759C45.0582 41.5696 46.0328 41.2691 46.6522 41.0901C47.2717 40.9119 48.3832 40.6234 49.1213 40.4499C49.8594 40.2757 50.9709 40.0392 51.5903 39.9249C52.2098 39.8098 53.1264 39.6667 53.6262 39.6076C54.1824 39.5413 55.462 39.4965 56.9183 39.4933ZM54.7958 40.9318C54.4146 41.0198 53.401 41.3027 52.5433 41.56C51.6856 41.8173 50.497 42.1578 49.901 42.3168C49.3058 42.4759 47.9699 42.8563 46.9338 43.1616C45.8976 43.4669 44.9421 43.7154 44.8113 43.7138C44.6804 43.713 44.476 43.6603 44.3564 43.5971C44.2377 43.534 43.9155 43.4812 43.6417 43.4804C43.3679 43.4788 43.0361 43.5268 42.9053 43.5875C42.7745 43.6483 42.5207 43.8457 42.3422 44.0271C42.1533 44.2181 41.9792 44.4986 41.9272 44.696C41.8545 44.9701 41.8631 45.07 41.9705 45.2155C42.0442 45.3146 42.2504 45.4832 42.4288 45.5911C42.6073 45.699 42.9097 45.8205 43.1002 45.862C43.3038 45.9052 43.6079 45.9076 43.8366 45.8676C44.0957 45.8213 44.3573 45.6934 44.6163 45.4856L45.0062 45.1731L44.9629 43.9568C48.2194 42.9682 49.2625 42.6797 49.3812 42.6789C49.5068 42.6773 49.9963 42.9178 50.5507 43.2535C51.3001 43.7066 51.5869 43.8369 51.8936 43.8609C52.1084 43.8784 53.1116 43.8529 54.1244 43.8049C55.1371 43.7562 56.0338 43.6842 56.117 43.6443C56.2105 43.6003 55.3849 43.5772 53.9658 43.5843L51.6623 43.5971C51.0818 43.2255 50.7535 42.9858 50.5585 42.8243C50.3212 42.6285 50.2328 42.5046 50.2908 42.4511C50.3385 42.4063 50.8938 42.2777 51.5254 42.1642C52.2046 42.0427 52.9739 41.9588 53.4097 41.9588C53.8142 41.9588 54.8963 42.0499 55.8137 42.161C56.7312 42.2721 57.9493 42.4327 58.521 42.5182C59.0928 42.6037 59.941 42.7284 60.4053 42.7955C60.8697 42.8627 61.3574 42.9186 61.4882 42.9194C61.6398 42.9202 61.6953 42.893 61.6398 42.8459C61.5922 42.8051 60.2468 42.571 58.651 42.3264C57.0552 42.0819 55.2705 41.8365 54.6866 41.7806C53.9528 41.7103 53.6254 41.6479 53.6254 41.5792C53.6262 41.5208 53.8679 41.4321 54.211 41.365C54.5324 41.3027 55.0297 41.2124 55.3156 41.1652C55.6015 41.1173 56.3032 41.0797 56.875 41.0805C57.4468 41.0813 58.7523 41.1708 59.7772 41.2795C60.8021 41.3882 61.8547 41.4761 62.1163 41.4753C62.5131 41.4745 62.5642 41.4593 62.4196 41.385C62.3243 41.3362 61.9344 41.2499 61.5532 41.1948C61.172 41.1388 59.9436 41.019 58.8243 40.9278C57.7049 40.8367 56.5934 40.7504 56.3552 40.736C56.117 40.7217 55.825 40.7241 55.7054 40.7408C55.5868 40.7576 55.177 40.8439 54.7958 40.9318ZM37.8589 43.18C38.0469 43.1951 38.1829 43.3885 38.8829 44.6361C39.3265 45.4273 40.1166 46.8386 40.6373 47.7729C41.1579 48.7071 41.5842 49.5614 41.5842 49.6709C41.5842 49.8092 41.5174 49.8955 41.3676 49.9506C41.2489 49.9946 41.0046 50.0314 40.8261 50.0322C40.509 50.0346 40.4917 50.0186 40.0949 49.3728C39.8714 49.0092 39.0822 47.5795 38.3406 46.1945C37.5981 44.8095 36.9856 43.6179 36.9778 43.546C36.9683 43.4621 37.0861 43.3686 37.3027 43.2886C37.4899 43.2191 37.7402 43.1704 37.8589 43.18ZM37.0142 45.0748C37.0974 45.0756 37.2464 45.1923 37.346 45.3354C37.4448 45.4784 37.9299 46.3503 38.4255 47.2734C38.9202 48.1964 39.336 49.0396 39.3499 49.1467C39.3724 49.3209 39.3083 49.3664 38.7686 49.563C38.435 49.6853 38.0937 49.786 38.0105 49.7876C37.9273 49.7892 37.664 49.6294 37.4257 49.4312C37.1875 49.233 36.9536 49.0899 36.9059 49.1115C36.8583 49.1331 36.7994 49.4392 36.7327 50.4302L36.2129 50.6699C35.927 50.8018 35.6246 50.9089 35.5415 50.9089C35.4583 50.9081 35.175 50.7291 34.4369 50.1145L34.2636 51.6257L32.9641 52.2707L32.401 51.748C32.0917 51.4603 31.8075 51.2525 31.7703 51.2869C31.733 51.3212 31.7045 51.6641 31.7053 52.0485C31.7071 52.532 31.6741 52.7614 31.5996 52.7933C31.5399 52.8181 31.0235 52.7102 30.4517 52.5544C29.7673 52.3674 29.2345 52.2707 28.8923 52.2707C28.4955 52.2707 28.2183 52.3322 27.7228 52.5312C27.3658 52.6743 26.898 52.8924 26.6832 53.0155C26.4683 53.1386 25.5916 53.6197 24.7339 54.0856C23.8762 54.5508 22.4927 55.3084 21.6584 55.7695C20.825 56.2298 19.6407 56.898 19.0274 57.2544C18.4149 57.6108 16.7965 58.5866 15.4321 59.4234C14.0684 60.2593 12.6061 61.1768 12.1824 61.4613C11.7597 61.7458 10.2193 62.8023 8.7604 63.8101C7.30148 64.8171 5.32797 66.2069 4.375 66.8974C3.42203 67.5887 2.11646 68.5701 1.47277 69.0791C0.829084 69.5882 0.234777 70.0054 0.151609 70.007C0.0684406 70.0086 0 69.9566 0 69.8903C0 69.824 0.103094 69.5818 0.228713 69.3509C0.355198 69.1199 0.693935 68.6076 0.982425 68.212C1.27178 67.8164 1.9172 67.0252 2.41795 66.4538C2.91869 65.8824 3.6802 65.0369 4.1099 64.5757C4.5396 64.1146 5.3245 63.2874 5.8547 62.7376C6.3849 62.1886 7.61337 60.9994 8.5854 60.0955C9.55743 59.1916 10.7755 58.1311 11.2927 57.7379C11.809 57.3447 12.5108 56.8372 12.8521 56.6103C13.1926 56.3825 14.2512 55.8047 15.2042 55.326C16.1572 54.8465 17.9895 53.9474 19.276 53.328C20.5625 52.7086 23.1355 51.4771 24.9938 50.5908C26.8521 49.7045 30.2828 48.1005 32.6176 47.0264C34.9524 45.9531 36.9311 45.0748 37.0142 45.0748ZM22.0916 53.0011C21.1152 53.4671 19.7897 54.1088 19.146 54.4277C18.5024 54.7466 17.3527 55.3124 16.5903 55.6856C15.828 56.0588 15.0387 56.468 14.836 56.5943C14.6333 56.7205 14.4479 56.8596 14.4245 56.9036C14.4011 56.9475 14.3907 57.0027 14.4028 57.0266C14.415 57.0506 14.7944 56.8764 15.2475 56.6398C15.7006 56.4025 16.4578 56.0149 16.9317 55.7767C17.4056 55.5393 19.9188 54.3566 22.5161 53.1474C25.1142 51.939 27.242 50.9049 27.2446 50.8497C27.2472 50.7946 27.2099 50.7506 27.1614 50.7506C27.1129 50.7514 26.3522 51.0679 25.4703 51.4531C24.5884 51.8391 23.0679 52.5352 22.0916 53.0011ZM56.6584 47.1159C58.6085 47.1391 59.2375 47.1751 60.1238 47.3165C60.7198 47.4116 61.665 47.6114 62.2246 47.7609C62.7843 47.9103 63.35 48.0814 63.4808 48.1413C63.661 48.2228 63.7832 48.4002 63.979 48.863C64.1219 49.2002 64.2484 49.4751 64.2605 49.4735C64.2726 49.4727 64.497 49.1475 64.7587 48.7519C65.0203 48.3563 65.2932 48.0326 65.3651 48.0326C65.437 48.0326 65.6397 48.2396 65.8165 48.4921C65.9932 48.7447 66.4342 49.4911 66.7963 50.1504C67.1593 50.8098 67.6028 51.6729 67.7822 52.0685C67.9615 52.4641 68.2422 53.2377 68.4059 53.7867C68.5697 54.3366 68.8218 55.3435 68.9673 56.0245C69.112 56.7054 69.3052 57.7491 69.3962 58.3421C69.4863 58.9351 69.5911 59.7718 69.6292 60.201C69.6734 60.7093 69.6665 60.9802 69.6101 60.9802C69.5625 60.9802 69.3528 60.3952 69.1449 59.6807C68.937 58.9662 68.5913 57.9329 68.3782 57.3831C68.1642 56.834 67.7692 55.9613 67.5006 55.445C67.2312 54.9288 67.0068 54.5156 67.0007 54.526C66.9955 54.5372 67.1168 55.0135 67.271 55.5849C67.4244 56.1563 67.6167 57.037 67.6973 57.5429C67.7778 58.0488 67.8714 58.8312 67.9043 59.2819C67.9433 59.811 67.9338 60.1019 67.8775 60.1027C67.8298 60.1035 67.6574 59.8246 67.4937 59.4825C67.3299 59.1413 67.0787 58.6634 66.9358 58.422C66.792 58.1807 66.4931 57.7307 66.2704 57.423C66.0478 57.1153 65.6458 56.6206 65.3772 56.3241C65.1087 56.0276 64.8687 55.8207 64.8453 55.8646C64.8219 55.9086 64.7595 56.5112 64.7067 57.2032C64.6547 57.8953 64.5863 58.4875 64.5551 58.5179C64.5239 58.5491 63.9512 58.243 63.2824 57.8386C62.6136 57.4342 61.3661 56.711 60.5101 56.2314C59.6542 55.7519 57.8236 54.6746 56.4418 53.8387C55.06 53.0019 53.6566 52.162 53.323 51.9726C52.9895 51.7824 52.6681 51.6273 52.6083 51.6281C52.5251 51.6289 52.4948 52.0997 52.4783 53.6605C52.4662 54.7777 52.4272 55.7216 52.3908 55.7583C52.3545 55.7951 52.2375 55.7855 52.1309 55.7367C52.0244 55.6888 50.9423 55.0798 49.7277 54.3837C48.5131 53.6876 47.1486 52.9156 46.6955 52.6679C46.2424 52.4209 45.5884 52.0773 45.241 51.9039C44.8936 51.7304 44.6094 51.5706 44.6103 51.549C44.6111 51.5274 44.709 51.3109 44.8286 51.0695C44.9473 50.8282 45.1101 50.2519 45.1898 49.7908C45.2704 49.3297 45.3787 48.9109 45.4307 48.8614C45.4835 48.811 45.9358 48.66 46.4356 48.5257C46.9355 48.3914 47.8131 48.1741 48.3849 48.0422C48.9567 47.9111 49.9313 47.7137 50.5507 47.6034C51.1702 47.4932 52.1058 47.3477 52.6299 47.2798C53.1541 47.2118 53.7389 47.1407 53.9295 47.1223C54.12 47.1039 55.3485 47.1008 56.6584 47.1159ZM43.9181 52.4273C43.9926 52.4265 45.0859 52.9788 46.349 53.6541C47.9552 54.5124 48.6517 54.9272 48.6673 55.0335C48.6812 55.1278 47.9959 56.0388 46.8705 57.423C45.8691 58.6538 45.0495 59.7055 45.0495 59.7606C45.0495 59.8158 45.0694 59.8605 45.0928 59.8605C45.1162 59.8605 45.5165 59.8965 45.9808 59.9413C46.4452 59.9852 47.1374 60.0595 47.5186 60.1051C47.8998 60.1514 48.2697 60.2202 48.3416 60.2585C48.4403 60.3113 48.4481 60.3528 48.3728 60.4336C48.3191 60.4919 47.8512 60.7428 47.3332 60.9906C46.816 61.2391 45.9444 61.6052 45.396 61.8034C44.8476 62.0024 44.0679 62.2269 43.6634 62.3012C43.089 62.4075 42.7078 62.4259 41.9307 62.3844C41.3823 62.3548 40.1157 62.2605 39.1151 62.1758C37.9325 62.0751 36.9926 61.9488 36.4295 61.8153C35.953 61.7027 34.8224 61.3814 33.9171 61.1025C33.0118 60.8236 31.9981 60.5007 31.6646 60.384C31.3311 60.2673 31.0972 60.2074 31.1448 60.2505C31.1924 60.2937 31.7192 60.5686 32.3144 60.8611C32.9104 61.1544 33.8452 61.5836 34.3936 61.8153C34.942 62.0471 35.7702 62.3492 36.2345 62.4875C36.7864 62.6505 37.567 62.7951 38.487 62.9038C39.4954 63.0229 40.6078 63.0829 42.4072 63.1132C43.9458 63.1396 45.1041 63.1244 45.396 63.0749C45.6577 63.0301 46.4772 62.7864 47.2153 62.533C48.4655 62.1038 48.5824 62.0783 48.9047 62.159C49.0953 62.2077 49.5926 62.3572 50.0093 62.4923C50.588 62.6793 50.7621 62.7696 50.7457 62.8727C50.7309 62.9622 50.2337 63.2131 49.2512 63.6263C48.4412 63.9675 47.2517 64.4319 46.6089 64.6588C45.9661 64.8858 45.1075 65.1384 44.703 65.2199C44.2984 65.3006 43.4017 65.4221 42.7104 65.4884C42.0191 65.5555 40.3626 65.669 39.0285 65.7409C37.6631 65.8153 36.186 65.852 35.6498 65.8249C35.1256 65.7993 34.229 65.7042 33.6572 65.6147C33.0854 65.5252 32.2078 65.3613 31.7079 65.2518C31.208 65.1416 30.4864 64.9577 30.1052 64.8435C29.724 64.7292 29.0422 64.491 28.5891 64.3144C28.136 64.1378 27.3962 63.7957 26.9431 63.5552C26.49 63.3138 25.9251 62.9925 25.2537 62.5634L25.6436 62.8926C25.8584 63.0741 26.3843 63.4385 26.8131 63.7038C27.242 63.9683 28.1187 64.4311 28.7624 64.7324C29.4061 65.0337 30.2828 65.4141 30.7116 65.5787C31.1405 65.7425 31.9592 66.035 32.5309 66.2268C33.1027 66.4194 33.9604 66.6808 34.4369 66.807C34.9134 66.9333 35.771 67.0812 36.3428 67.1363C37.0593 67.2042 38.137 67.221 39.8082 67.1875C41.1423 67.1619 42.6238 67.1004 43.1002 67.0524C43.5767 67.0044 44.2594 66.9101 44.6163 66.8422C44.9741 66.7751 45.9089 66.5249 46.6955 66.2876C47.6788 65.9895 48.6387 65.6203 49.771 65.1048C50.6764 64.6924 51.67 64.1825 51.9802 63.9715C52.2903 63.7614 52.7686 63.3881 53.0441 63.1428C53.3196 62.8982 53.5457 62.6617 53.5457 62.6177C53.5465 62.5738 53.4374 62.4946 53.3048 62.4411C53.1723 62.3876 52.5953 62.2189 52.0235 62.0655C51.4517 61.9112 50.7015 61.7122 50.3558 61.6227C50.0101 61.5324 49.7095 61.4317 49.6861 61.399C49.6636 61.3662 49.9564 61.0066 50.3359 60.5998C50.7162 60.193 51.0272 59.8246 51.0272 59.7806C51.0272 59.7367 50.9978 59.7007 50.9623 59.7007C50.9267 59.7007 50.5854 59.6663 50.2042 59.624C49.823 59.5816 48.8683 59.5057 48.0817 59.4553C47.295 59.4042 46.5647 59.3307 46.4573 59.2923C46.3499 59.2532 46.265 59.1764 46.2676 59.1213C46.2702 59.0661 46.9858 58.2302 47.8582 57.2632C48.9255 56.0788 49.4964 55.5066 49.6073 55.509C49.6974 55.5114 50.5802 55.9877 51.5687 56.5679C52.5572 57.1481 53.3819 57.614 53.4019 57.6028C53.4209 57.5917 53.4608 56.7741 53.4902 55.7847C53.5205 54.7961 53.563 53.762 53.5855 53.487C53.6158 53.113 53.6592 52.9875 53.7562 52.9875C53.8281 52.9875 55.0011 53.6796 56.363 54.526C57.7257 55.3723 58.9248 56.1236 59.027 56.1963C59.2124 56.3273 59.2124 56.3313 59.0556 56.6358C58.9681 56.8053 58.3261 57.9145 57.6296 59.1013C56.9322 60.2881 55.5001 62.716 54.4475 64.4958C52.6455 67.5423 52.5156 67.7381 52.2349 67.8236C52.0712 67.8732 51.0688 68.053 50.0084 68.2232C48.948 68.3926 48.0791 68.5501 48.0791 68.5717C48.0782 68.5932 48.2446 68.6604 48.4481 68.7203C48.6517 68.7794 49.9097 69.199 51.2438 69.6513C52.578 70.1037 54.3912 70.7247 55.2723 71.0307C56.1533 71.3376 57.1089 71.6917 57.3948 71.8179C57.7023 71.9538 57.9233 72.1048 57.9363 72.188C57.951 72.2847 57.8843 72.3398 57.7197 72.3678C57.5889 72.3894 56.1559 72.5156 54.5359 72.6483C52.9158 72.7802 50.3627 72.9959 48.8614 73.127C47.36 73.2573 45.6741 73.3923 45.1136 73.4259C44.554 73.4595 44.0939 73.505 44.0922 73.5266C44.0905 73.5482 44.541 73.9446 45.0928 74.4057C45.6455 74.8668 46.1541 75.3256 46.2234 75.4247C46.2927 75.5238 46.349 75.658 46.349 75.7244C46.349 75.7971 46.161 75.9074 45.8725 76.0041C45.6109 76.092 44.8797 76.2694 44.2481 76.3989C43.6166 76.5283 42.2625 76.7609 41.2376 76.9159C40.2127 77.071 38.4584 77.3243 37.3391 77.4794C36.2198 77.6344 34.0947 77.8877 32.6176 78.0436C31.1405 78.1986 29.4641 78.3776 28.8923 78.4416C28.3205 78.5047 26.3132 78.6853 24.4307 78.842C22.5481 78.9986 20.3069 79.1968 19.4493 79.2807C18.5916 79.3654 17.0322 79.5101 15.9839 79.6028C14.9356 79.6955 13.6491 79.8226 13.125 79.8857C12.6009 79.9488 11.9286 80.0008 11.6306 80C11.3274 80 11.0891 79.9648 11.0891 79.9201C11.0891 79.8761 11.1965 79.8026 11.3274 79.7562C11.4582 79.7107 12.8712 79.439 14.4678 79.1537C16.0645 78.8683 17.9349 78.5295 18.6262 78.4C19.3176 78.2714 22.3385 77.7311 25.3403 77.1997C28.3422 76.6674 31.714 76.0568 32.8342 75.8426C33.9535 75.6292 35.4748 75.3288 36.2129 75.1761C36.951 75.0235 37.9455 74.8053 38.422 74.6918C38.8985 74.5783 39.2979 74.4672 39.31 74.4457C39.3222 74.4233 39.1186 74.289 38.3865 73.8862L36.3679 74.0237C35.2582 74.0996 33.1027 74.2539 31.578 74.3657C30.0532 74.4784 27.695 74.659 26.3366 74.7677C24.9782 74.8756 21.4115 75.1625 18.4097 75.4039C15.4078 75.646 12.133 75.8986 11.1324 75.9657C10.1318 76.0328 8.68936 76.108 7.92698 76.1319C7.05891 76.1591 6.5729 76.1471 6.62747 76.1C6.67512 76.0584 7.39678 75.9649 8.2302 75.8914C9.06448 75.8179 10.5849 75.6668 11.6089 75.5557C12.6329 75.4454 14.661 75.1953 16.1139 75.0019C17.5667 74.8077 20.0817 74.4696 21.7017 74.2499C23.3218 74.0309 26.1097 73.6369 27.896 73.374C29.6833 73.1118 32.0995 72.749 33.2673 72.5684C34.4351 72.3878 36.1306 72.1168 37.0359 71.9666C37.9412 71.8155 39.2667 71.583 39.9814 71.4487C40.6962 71.3153 41.5339 71.149 41.8441 71.0787C42.1542 71.0092 42.4652 70.9053 42.5371 70.8477C42.6506 70.7558 42.6342 70.7143 42.4072 70.5185C42.2642 70.3946 41.7184 70.1093 41.1943 69.8831C40.6702 69.6577 40.1045 69.4316 39.9381 69.3812C39.6955 69.3069 39.1359 69.3277 37.1225 69.4883C35.7407 69.5978 34.3182 69.7105 33.9604 69.7393C33.6035 69.7672 33.2812 69.8032 33.2457 69.82C33.2101 69.8368 33.587 70.0749 34.0834 70.3498C34.5807 70.6248 35.0771 70.9093 35.188 70.982C35.3682 71.1003 35.376 71.1282 35.2599 71.2409C35.1811 71.3169 34.8579 71.3976 34.4369 71.4463C34.0557 71.4903 32.1645 71.6365 30.2351 71.77C28.3058 71.9035 25.0891 72.1392 23.0879 72.2927C21.0866 72.4461 18.6306 72.6443 17.6299 72.7322C16.6293 72.8209 13.9004 73.0719 11.5656 73.29C9.23082 73.5082 7.03812 73.6864 6.69245 73.6864C6.33119 73.6864 6.06436 73.6521 6.06436 73.6065C6.06436 73.5626 6.65866 73.3987 7.38552 73.2421C8.11238 73.0854 9.57389 72.7977 10.6343 72.6027C11.6947 72.4077 13.2541 72.1432 14.0996 72.0145C14.9452 71.8859 17.2947 71.5822 19.3193 71.3384C21.3448 71.0947 23.9759 70.7862 25.1671 70.6527C26.3583 70.5185 27.5079 70.3562 27.7228 70.2923C27.9671 70.2188 28.0156 70.1884 27.8527 70.2108C27.7098 70.2308 26.1694 70.3562 24.4307 70.4897C22.692 70.624 20.4109 70.803 19.3626 70.8893C18.3144 70.9748 16.346 71.0811 14.9876 71.125C13.6292 71.1682 11.252 71.2289 9.70297 71.2585C7.12129 71.3081 6.88738 71.3017 6.88738 71.181C6.88738 71.1083 6.93589 71.0491 6.99567 71.0491C7.05545 71.0491 8.30297 70.6128 9.76795 70.0797C11.2329 69.5467 12.7048 69.024 13.0384 68.9193C13.3719 68.8146 14.6394 68.5445 15.854 68.3183C17.3007 68.0498 18.2875 67.9075 18.7129 67.9051C19.2552 67.9027 19.6277 67.9755 22.5681 68.7842L26.1634 68.1824C28.1403 67.8516 29.7197 67.5695 29.672 67.5567C29.6244 67.5431 28.0061 67.7093 22.5681 68.3191L21.6368 67.9858C21.1239 67.8028 20.7046 67.6078 20.7054 67.5527C20.7054 67.4975 20.9099 67.4008 21.1603 67.3369C21.4106 67.273 21.966 67.1323 22.3948 67.0228C22.8236 66.9141 23.1546 66.8222 23.1312 66.819C23.1078 66.8158 22.0353 66.9389 20.7488 67.0932C19.4623 67.2466 18.3611 67.3729 18.3014 67.3729C18.2416 67.3729 18.1948 67.3281 18.1957 67.273C18.1974 67.2178 18.4088 66.9397 18.6661 66.6536C18.9225 66.3675 19.263 66.0183 19.4207 65.876C19.6537 65.6666 20.1813 65.4596 22.1782 64.7907C23.5366 64.336 24.7252 63.9196 24.9938 63.7686L24.8205 63.8109C24.7252 63.8341 23.5756 64.145 22.2649 64.5022C20.9549 64.8594 19.775 65.2023 19.6442 65.2638C19.5134 65.3246 18.8307 65.8736 16.8502 67.591L16.1139 67.7197C15.7084 67.7908 15.3446 67.8228 15.3047 67.7908C15.2649 67.7589 15.3627 67.6358 15.5213 67.5167C15.6807 67.3984 16.21 67.0116 16.6986 66.6576C17.1873 66.3036 18.6297 65.1583 19.9041 64.113C21.1785 63.0669 22.9822 61.602 23.9118 60.8563C24.8405 60.1107 25.7761 59.3706 25.991 59.2116C26.205 59.0526 26.6918 58.7433 27.073 58.5259C27.4542 58.3077 28.8187 57.5885 30.1052 56.9275C31.3917 56.2674 32.8827 55.5058 33.4189 55.2365C33.9552 54.9663 34.4421 54.745 34.5019 54.7434C34.5616 54.7426 34.8441 54.8361 35.1299 54.9519C35.4158 55.0678 36.2735 55.3116 38.422 55.8247L38.4775 56.3042C38.5078 56.5679 38.5407 57.2336 38.5494 57.7827C38.558 58.3325 38.5962 58.9431 38.6343 59.1413C38.6724 59.3395 38.7088 59.429 38.7157 59.3411C38.7226 59.2532 38.9028 58.462 39.116 57.5829C39.3299 56.7038 39.5526 55.9405 39.6124 55.8862C39.673 55.8326 39.8965 55.7647 40.5012 55.684L41.8077 56.9931C42.5267 57.7131 43.2579 58.446 43.4338 58.6218C43.7214 58.9103 43.6677 58.7824 42.8845 57.3031C42.408 56.4025 42.0165 55.6113 42.0156 55.5449C42.0147 55.4642 42.292 55.3364 42.8603 55.1565C43.3255 55.0087 43.9311 54.7833 44.2048 54.657C44.4786 54.53 44.742 54.3542 44.7896 54.2662C44.8373 54.1783 44.8468 54.0912 44.8113 54.0736C44.7757 54.0553 44.3954 54.1464 43.9666 54.2766C43.5377 54.4061 42.6601 54.6395 42.0173 54.7937C41.2194 54.9863 40.5723 55.0886 39.9814 55.1174C39.2147 55.1541 39.0007 55.1318 38.1188 54.9224C37.5704 54.7921 36.8592 54.5731 36.5377 54.4357C36.2163 54.299 35.953 54.1504 35.953 54.1064C35.953 54.0625 36.3818 53.8283 37.8589 53.1474L38.617 53.3919C39.0337 53.5262 39.6773 53.6701 40.0464 53.7116C40.4943 53.762 40.9127 53.758 41.3026 53.7012C41.6734 53.6477 42.1256 53.5014 42.5371 53.304C42.8949 53.133 43.3212 52.8661 43.4849 52.7102C43.6495 52.5552 43.8444 52.4273 43.9181 52.4273ZM29.1089 52.9116C29.3238 52.9092 29.8106 52.9636 30.1918 53.0323C30.573 53.101 30.9144 53.173 30.9499 53.1921C30.9854 53.2113 31.0149 53.2633 31.0149 53.3072C31.0149 53.3512 29.6599 54.2191 28.0043 55.2357C26.3488 56.253 24.6429 57.3111 24.2141 57.5877C23.7853 57.865 23.0861 58.3541 22.6616 58.6761C22.2363 58.9982 21.2443 59.8909 20.4577 60.6597C19.671 61.4293 18.3819 62.6841 17.5927 63.4497C16.8026 64.2145 15.8652 65.0456 15.5074 65.2958C15.1505 65.5459 14.7017 65.8249 14.5111 65.9152C14.3205 66.0047 13.4048 66.3539 12.4752 66.6904C11.5457 67.0268 9.83032 67.5855 8.66337 67.9315C7.49641 68.2783 6.03403 68.6883 5.4146 68.8434C4.79517 68.9984 3.6646 69.2669 2.90223 69.4396C2.13985 69.613 1.38007 69.7672 1.21287 69.7824C1.01708 69.8008 0.909653 69.776 0.909653 69.7137C0.909653 69.6609 1.6703 69.1023 2.59901 68.4726C3.52772 67.8436 5.39901 66.5921 6.75743 65.6922C8.11497 64.7923 9.51844 63.8676 9.87624 63.6367C10.2332 63.4057 12.1244 62.2341 14.078 61.0329C16.0316 59.8318 18.1861 58.5283 18.8653 58.1359C19.5446 57.7435 20.7141 57.0722 21.4644 56.6438C22.2146 56.2155 23.4327 55.529 24.1708 55.119C24.9089 54.7082 26.0204 54.108 26.6399 53.7843C27.2593 53.4615 27.9809 53.1338 28.2426 53.0563C28.5042 52.9796 28.8941 52.914 29.1089 52.9116ZM59.9037 56.8236C59.9774 56.8236 60.5734 57.1249 61.2283 57.4942C61.8833 57.8626 63.0433 58.4971 63.8057 58.9047C64.5681 59.3115 65.4847 59.8254 65.8416 60.0459C66.1994 60.2665 66.7252 60.6094 67.0111 60.8076C67.297 61.0058 68.0689 61.566 68.7273 62.0527C69.3849 62.5394 69.8917 62.9646 69.8536 62.9981C69.8146 63.0309 69.1787 62.8583 68.4406 62.6145C67.7025 62.37 67.07 62.1806 67.0363 62.1942C67.0016 62.2069 67.109 62.4883 67.2736 62.8175C67.4391 63.1476 67.7103 63.8037 67.8775 64.276C68.1521 65.0552 68.1807 65.2207 68.1807 66.0542C68.1807 66.664 68.1209 67.249 68.0022 67.7924C67.9043 68.2432 67.6851 68.9353 67.5162 69.3309C67.3464 69.7265 67.0501 70.3203 66.8569 70.6495C66.6637 70.9796 66.3726 71.4471 66.2106 71.6885C66.0235 71.9682 65.8884 72.0993 65.8373 72.0481C65.7896 71.9994 65.7931 71.6221 65.8468 71.0891C65.9066 70.4905 65.9066 69.9295 65.8459 69.3309C65.7974 68.8474 65.6839 68.1824 65.5929 67.8524C65.5028 67.5231 65.2837 66.9293 65.1061 66.5337C64.9293 66.1381 64.6816 65.653 64.5559 65.4548C64.4303 65.2566 64.0924 64.8794 63.8057 64.6157C63.5189 64.352 63.0892 64.0387 62.8519 63.9204C62.6136 63.8013 62.1077 63.6303 61.7265 63.5392C61.3453 63.4489 60.7605 63.3753 60.427 63.3745C60.0744 63.3745 59.4757 63.4545 58.9975 63.5656C58.5444 63.6702 57.9215 63.8732 57.6114 64.0171C57.3012 64.1602 56.8334 64.4111 56.5718 64.5749C56.3101 64.738 55.7522 65.1735 55.3329 65.5427C54.8218 65.9935 54.542 66.1877 54.483 66.1341C54.4241 66.0806 54.5844 65.7026 54.9743 64.9753C55.2931 64.3823 55.8952 63.3034 56.3119 62.5778C56.7295 61.8521 57.2969 60.8995 57.5733 60.4599C57.8496 60.0204 58.398 59.1213 58.7913 58.462C59.1847 57.8026 59.5658 57.1641 59.6386 57.0434C59.7114 56.9227 59.8309 56.8236 59.9037 56.8236ZM60.0804 64.6892C60.8298 64.71 61.1816 64.7611 61.7265 64.929C62.1077 65.0464 62.6301 65.2758 62.8865 65.4388C63.1438 65.6011 63.5744 65.9503 63.8429 66.2141C64.1115 66.4778 64.4554 66.9269 64.6079 67.213C64.7604 67.4991 64.9458 67.9483 65.0203 68.212C65.0948 68.4757 65.1788 69.0512 65.2083 69.4907C65.2481 70.1021 65.2248 70.4401 65.1078 70.9292C65.0238 71.2809 64.8522 71.8131 64.7266 72.1112C64.601 72.4101 64.4598 72.6411 64.4121 72.6243C64.3645 72.6083 64.3004 72.1144 64.2692 71.5222C64.2233 70.6359 64.173 70.3522 63.9824 69.8903C63.8559 69.5826 63.6515 69.2046 63.5293 69.0512C63.4063 68.8977 63.1845 68.6715 63.0355 68.5493C62.8874 68.427 62.5911 68.2416 62.3762 68.1377C62.1614 68.0338 61.7525 67.8867 61.4666 67.8108C61.062 67.7029 60.7354 67.6806 59.9938 67.7101C59.1916 67.7413 58.9308 67.7877 58.3478 67.9978C57.9666 68.1353 57.3229 68.4326 56.9183 68.658C56.5137 68.8833 56.1577 69.0368 56.1291 68.9992C56.0996 68.9617 55.8726 68.4102 55.6249 67.7725C55.2879 66.9046 55.1943 66.5737 55.2541 66.4538C55.2983 66.3659 55.5443 66.1429 55.8016 65.9591C56.058 65.7745 56.5614 65.4996 56.9183 65.3477C57.2761 65.1959 57.841 64.9985 58.1745 64.9098C58.508 64.8211 58.8589 64.7292 58.9542 64.706C59.0495 64.6828 59.5563 64.6756 60.0804 64.6892Z" fill="#120A8F"/>
</svg>
