<svg width="150" height="150" viewBox="0 0 150 150" fill="none" xmlns="http://www.w3.org/2000/svg">
<circle cx="75" cy="75" r="70.5" stroke="#FF5353" stroke-width="9"/>
<g clip-path="url(#clip0)">
<path d="M77.762 75.0008L99.4277 53.335C100.19 52.5722 100.19 51.3355 99.4277 50.5728C98.6649 49.8101 97.4282 49.81 96.6655 50.5728L74.9997 72.2386L53.334 50.5728C52.5713 49.81 51.3345 49.81 50.5718 50.5728C49.8092 51.3356 49.8091 52.5723 50.5718 53.335L72.2375 75.0007L50.5718 96.6665C49.8091 97.4293 49.8091 98.666 50.5718 99.4287C50.9532 99.81 51.4531 100.001 51.953 100.001C52.4529 100.001 52.9527 99.81 53.3341 99.4287L74.9997 77.763L96.6654 99.4287C97.0467 99.81 97.5466 100.001 98.0465 100.001C98.5464 100.001 99.0462 99.81 99.4277 99.4287C100.19 98.6659 100.19 97.4292 99.4277 96.6665L77.762 75.0008Z" fill="#FF5353"/>
</g>
<defs>
<clipPath id="clip0">
<rect width="50" height="50" fill="white" transform="translate(50 50)"/>
</clipPath>
</defs>
</svg>
