<svg width="515" height="615" viewBox="0 0 515 615" fill="none" xmlns="http://www.w3.org/2000/svg">
<g id="icone lobo 4">
<path id="Path 0" fill-rule="evenodd" clip-rule="evenodd" d="M281.631 4.50037e-06C281.854 -0.00613923 285.245 6.2789 289.171 13.977C293.091 21.669 297.068 29.7602 298.005 31.9597C298.942 34.1592 301.364 40.2353 303.391 45.4759C305.412 50.7165 308.522 59.4222 310.3 64.8287C312.072 70.2352 314.539 78.2527 315.775 82.6455C317.012 87.0383 318.038 92.0147 318.044 93.7042C318.051 95.3937 317.464 98.9878 316.731 101.691C316.005 104.394 312.423 114.071 308.777 123.194C305.131 132.318 302.282 139.85 302.448 139.936C302.62 140.022 304.978 136.981 307.7 133.178C310.421 129.375 313.576 124.884 314.705 123.194C316.374 120.687 317.675 116.602 321.754 101.077C324.507 90.6016 326.949 81.6871 327.184 81.2632C327.42 80.8392 328.115 80.489 328.727 80.4829C329.371 80.4768 332.557 83.5179 336.273 87.7018C339.811 91.6768 346.707 99.7742 351.609 105.684C356.504 111.601 363.375 120.307 366.874 125.037C370.379 129.768 373.42 133.915 373.643 134.253C373.859 134.591 372.91 140.673 371.539 147.769C370.118 155.092 368.69 160.855 368.244 161.101C367.804 161.341 365.51 161.961 363.145 162.483C360.78 163.006 357.224 164.197 355.248 165.125C353.081 166.145 350.238 168.277 348.065 170.501C345.56 173.069 343.858 175.588 342.456 178.795C341.347 181.332 339.989 185.062 339.441 187.089C338.893 189.116 338.44 192.016 338.44 193.54C338.44 195.064 338.893 197.963 339.441 199.991C339.989 202.018 341.207 205.029 342.15 206.681C343.093 208.328 345.445 211.105 347.37 212.837C349.378 214.65 353.393 217.236 356.771 218.901C362.176 221.561 363.05 221.801 367.288 221.819C371.278 221.832 372.515 221.543 376.371 219.724C379.405 218.287 381.954 216.456 384.338 213.999C386.263 212.014 388.774 208.672 389.915 206.571C391.056 204.476 392.203 202.749 392.464 202.743C392.726 202.737 396.601 209.507 401.069 217.795C405.537 226.083 409.087 233.204 408.953 233.628C408.826 234.052 407.315 234.899 405.607 235.514C403.899 236.128 400.062 238.168 397.085 240.048C394.109 241.928 388.8 245.737 385.294 248.514C381.788 251.291 374.618 257.422 369.36 262.135C364.101 266.853 357.077 273.765 353.744 277.5C350.41 281.236 346.063 286.47 344.081 289.142C342.099 291.809 338.275 297.308 335.585 301.362C332.895 305.417 330.473 309.011 330.193 309.349C329.919 309.687 325.712 311.321 320.842 312.986C315.979 314.645 308.624 317.201 304.507 318.669C300.389 320.131 296.514 321.33 295.902 321.323C295.29 321.323 292.065 319.99 288.731 318.368C284.901 316.501 281.096 315.149 278.374 314.688C276.009 314.283 274.065 313.748 274.059 313.496C274.046 313.244 276.468 308.2 279.438 302.284C282.402 296.374 285.729 288.909 286.826 285.696C287.916 282.483 289.509 277.095 290.357 273.716C291.204 270.337 292.224 264.807 292.626 261.428C293.059 257.791 293.212 251.027 293.008 244.84C292.772 237.683 292.25 232.51 291.338 228.406C290.605 225.113 290.153 222.139 290.325 221.801C290.503 221.451 292.224 222.016 294.308 223.11C296.323 224.173 301.702 227.484 306.259 230.47C310.817 233.462 316.986 237.836 325.381 244.459L325.839 240.963C326.088 239.04 326.133 235.532 325.941 233.167C325.75 230.802 325.17 226.243 324.66 223.03C324.15 219.817 323.003 214.429 322.117 211.05C321.225 207.67 319.797 202.971 318.937 200.605C318.076 198.24 316.19 194.369 314.736 192.004C313.29 189.639 310.753 185.768 309.108 183.403C307.458 181.037 304.71 177.634 302.996 175.846C300.344 173.063 299.184 172.369 295.105 171.097C292.479 170.274 290.261 169.665 290.185 169.745C290.115 169.825 292.129 172.098 294.665 174.801C297.209 177.505 300.752 181.652 302.537 184.017C304.328 186.382 307.094 190.665 308.688 193.54C310.281 196.415 312.588 201.109 313.819 203.984C315.049 206.859 316.91 212.389 317.949 216.272C318.994 220.155 320.014 225.205 320.224 227.484C320.505 230.593 320.403 231.625 319.804 231.606C319.364 231.594 315.992 229.438 312.314 226.814C308.637 224.197 303.327 220.652 300.523 218.938C297.718 217.224 292.129 213.999 288.094 211.762C284.059 209.526 280.694 207.763 280.605 207.836C280.522 207.916 280.892 209.219 281.433 210.742C281.969 212.266 282.957 215.584 283.62 218.115C284.289 220.652 285.277 225.629 285.819 229.174C286.469 233.4 286.807 240.079 286.813 248.526C286.813 256.218 286.418 264.776 285.831 269.722C285.073 276.118 284.244 279.706 282.224 285.389C280.783 289.444 277.781 296.767 275.551 301.67C273.32 306.572 271.114 311.131 270.655 311.807C270.197 312.483 267.118 314.326 263.816 315.898C259.731 317.846 256.958 319.658 255.11 321.581C253.618 323.13 251.419 326.404 250.228 328.856C249.029 331.307 246.805 336.05 245.288 339.398C243.497 343.342 241.846 346.021 240.61 346.998C239.558 347.821 224.21 356.447 206.51 366.16C188.81 375.874 164.284 389.083 152.014 395.509C139.745 401.935 122.969 410.592 114.728 414.739C106.486 418.886 90.2843 426.793 78.716 432.316C67.1476 437.833 57.3256 442.349 56.8858 442.355C56.446 442.355 56.0827 441.741 56.07 440.979C56.0636 440.217 57.6762 436.973 59.6584 433.76C61.6407 430.547 73.6552 412.859 86.3517 394.44C99.0483 376.021 110.202 360.195 111.127 359.267C112.057 358.339 118.826 353.775 126.175 349.13C133.524 344.485 142.473 338.888 146.055 336.689C149.739 334.434 154.678 330.686 157.4 328.088C160.052 325.556 163.691 321.821 165.488 319.794C167.286 317.766 169 316.335 169.306 316.617C169.612 316.9 169.963 320.494 170.084 324.604C170.205 328.714 169.982 336.228 169.587 341.297C169.192 346.365 168.713 351.895 168.184 356.656L169.829 354.813C170.728 353.799 173.309 350.064 175.565 346.519C177.822 342.974 181.359 336.615 183.437 332.388C185.508 328.167 188.421 321.803 189.906 318.258C191.398 314.713 192.883 311.53 193.214 311.192C193.609 310.787 194.024 310.891 194.419 311.5C194.75 312.009 195.024 314.356 195.037 316.722C195.05 319.087 195.305 321.434 195.604 321.944C196.038 322.663 198.791 320.31 208.027 311.346C214.554 305.012 220.112 299.974 220.373 300.146C220.634 300.324 220.315 301.498 219.665 302.757C219.015 304.016 216.224 308.09 213.47 311.807C210.717 315.524 205.133 322.571 201.06 327.473C196.988 332.376 193.393 336.867 193.074 337.457C192.52 338.471 192.672 338.477 195.834 337.561C197.676 337.027 201.761 335.608 204.916 334.403C208.071 333.205 213.521 330.846 217.027 329.163C220.532 327.479 225.835 324.573 228.818 322.706C231.801 320.838 236.53 317.625 239.335 315.567C242.139 313.502 246.588 309.742 249.214 307.205C251.846 304.668 255.754 300.238 257.895 297.369C260.043 294.5 263.032 290.212 264.537 287.846C266.041 285.481 268.514 280.99 270.031 277.863C271.554 274.735 273.683 269.347 274.76 265.882C276.424 260.543 276.781 258.227 277.08 250.677C277.361 243.66 277.201 240.656 276.347 236.546C275.748 233.671 274.346 228.725 273.23 225.549C272.115 222.372 268.762 215.061 265.786 209.292C262.809 203.53 260.011 198.737 259.571 198.633C259.119 198.535 257.532 200.851 255.907 203.984C254.326 207.025 253.045 209.999 253.058 210.589C253.07 211.179 254.944 213.74 257.226 216.272C259.712 219.036 262.51 223.091 264.224 226.409C265.792 229.45 267.653 234.15 268.367 236.853C269.081 239.556 269.827 244.392 270.031 247.605C270.311 252.059 270.075 255.26 269.036 261.121C268.284 265.348 266.927 271.148 266.015 274.023C265.104 276.898 262.733 282.704 260.751 286.925C258.768 291.152 256.295 295.661 255.25 296.951C254.211 298.248 251.209 300.988 248.577 303.052C245.951 305.116 240.214 309.067 235.829 311.831C231.45 314.602 224.56 318.663 220.532 320.863C216.504 323.056 211.622 325.606 209.697 326.515C207.772 327.43 205.834 328.02 205.394 327.823C204.859 327.59 205.426 326.576 207.147 324.709C208.55 323.185 211.45 319.665 213.598 316.875C215.739 314.086 219.175 308.489 221.227 304.434C223.286 300.379 226.135 293.609 227.562 289.382C228.99 285.161 230.074 281.653 229.965 281.586C229.863 281.524 228.289 283.183 226.473 285.272C224.656 287.367 220.927 291.305 218.187 294.033C215.446 296.755 211.335 300.312 209.059 301.928C206.784 303.55 203.839 305.393 202.526 306.038C201.213 306.677 199.919 307.088 199.658 306.953C199.397 306.818 198.995 301.909 198.772 296.048C198.549 290.187 198.09 284.701 197.752 283.853C197.172 282.421 197.102 282.403 196.752 283.546C196.541 284.221 195.904 287.398 195.337 290.611C194.776 293.824 193.756 298.727 193.08 301.516C192.405 304.305 190.818 309.693 189.556 313.496C188.294 317.299 186.006 322.896 184.463 325.937C182.921 328.978 180.365 333.125 178.778 335.153C177.197 337.18 175.54 338.839 175.113 338.839C174.616 338.839 174.399 338.157 174.533 336.996C174.647 335.982 174.788 331.282 174.96 317.95L172.678 313.343C171.422 310.811 168.911 307.008 167.101 304.895C165.291 302.782 161.868 299.532 159.503 297.664C157.139 295.802 153.62 293.468 151.696 292.485C149.771 291.502 146.902 290.408 145.322 290.058C143.008 289.548 140.484 289.72 132.256 290.973C126.647 291.821 112.593 294.014 101.024 295.839C89.1371 297.719 76.6636 299.335 64.6937 299.937L57.0452 296.288C52.8385 294.285 45.8146 290.777 41.4295 288.485C37.0507 286.2 32.06 283.466 30.3519 282.403C27.3116 280.517 27.2478 280.418 27.6175 278.016C27.8215 276.665 28.5035 272.309 30.2754 261.115L25.1764 256.28L25.8137 259.573C26.4384 262.817 26.4001 262.964 23.2642 268.905C21.5114 272.229 19.6439 275.024 19.1213 275.123C18.5986 275.221 15.4373 273.66 12.1101 271.645C8.78304 269.636 4.97791 267.136 3.66491 266.091C1.35124 264.254 1.26201 264.033 0.949694 259.431C0.764855 256.814 0.490781 253.288 0.0509913 248.526L4.00909 246.444C6.18892 245.295 12.7029 241.86 18.4839 238.807C24.2649 235.76 34.737 230.089 41.7481 226.206C48.7593 222.329 57.077 217.629 60.2321 215.762C63.3871 213.894 67.9762 210.921 70.4301 209.157C72.884 207.388 79.1494 202.117 84.3568 197.435C89.5641 192.76 94.8097 188.103 98.226 185.246L100.259 187.218C101.407 188.33 104.95 190.302 108.354 191.727C111.687 193.122 116.277 194.873 118.552 195.61C120.827 196.354 127.284 199.475 132.893 202.54C138.502 205.606 145.526 209.391 148.509 210.957C153.926 213.808 153.926 213.808 156.795 212.966C158.375 212.506 163.965 210.607 178.784 205.367L192.806 206.178C200.519 206.62 209.55 207.136 212.884 207.326C216.217 207.511 218.652 207.535 218.301 207.388C217.951 207.234 211.781 206.141 204.598 204.949C197.415 203.763 187.376 201.981 173.048 199.211L166.993 201.054C163.659 202.061 158.069 203.683 148.19 206.411L142.135 203.29C138.801 201.57 135.71 199.85 135.258 199.462C134.805 199.082 134.658 198.553 134.939 198.301C135.213 198.049 138.381 198.67 141.976 199.684C148.458 201.514 148.521 201.521 150.261 200.366C151.224 199.733 154.341 196.759 162.359 188.318L184.52 190.302L188.415 187.47C190.556 185.909 196.943 180.693 202.596 175.877C208.256 171.06 212.884 166.981 212.884 166.815C212.884 166.649 209.659 168.781 205.713 171.558C201.768 174.335 194.884 179.035 182.29 187.396L177.35 186.241C174.635 185.608 172.334 184.853 172.232 184.552C172.136 184.257 172.856 183.839 173.825 183.618C174.8 183.403 177.911 181.191 180.741 178.703C183.571 176.221 188.447 172.129 191.576 169.61C194.706 167.097 197.555 164.775 197.905 164.455C198.313 164.081 198.199 164.056 197.587 164.388C197.064 164.677 194.196 166.557 191.213 168.572C188.23 170.587 183.928 173.56 177.509 178.131L162.85 179.987C154.787 181.007 147.33 182.088 146.278 182.389C145.226 182.69 142.721 183.734 140.707 184.705C138.266 185.891 136.838 186.272 136.405 185.86C135.971 185.449 137.61 183.231 141.402 179.102C144.506 175.723 154.309 166.323 163.194 158.213C172.072 150.104 182.513 140.704 186.388 137.325C190.27 133.946 195.681 129.381 198.409 127.188C201.143 124.994 203.361 123.127 203.349 123.041C203.336 122.955 201.532 124.048 199.339 125.461C197.147 126.874 187.899 133.012 178.784 139.094C169.67 145.176 158.911 152.432 154.882 155.215C150.854 158.005 146.788 160.923 145.857 161.703C144.927 162.489 142.18 165.752 139.751 168.965C137.323 172.178 133.524 177.425 131.312 180.638C129.101 183.851 126.258 187.685 124.996 189.172C122.822 191.721 122.555 191.844 120.145 191.506C118.743 191.316 115.301 190.456 112.497 189.602C109.692 188.748 106.754 187.623 105.964 187.107C105.173 186.591 103.956 185.062 103.255 183.71C102.554 182.358 101.98 180.699 101.98 180.024C101.98 179.348 103.287 175.686 104.887 171.883C106.48 168.08 109.208 160.683 110.948 155.449C112.682 150.214 114.677 145.029 115.371 143.929C116.066 142.829 120.012 139.5 124.129 136.526C128.246 133.552 136.207 127.913 152.014 116.866L160.23 102.52C164.749 94.6319 169.338 86.8109 170.428 85.146C172.021 82.7131 175.635 79.7887 188.823 70.2474C197.848 63.7167 205.522 58.3778 205.873 58.3778C206.223 58.3778 206.51 58.7955 206.51 59.2993C206.51 59.8031 204.075 64.0914 201.092 68.8221C198.109 73.5528 195.745 77.5523 195.834 77.7059C195.923 77.8595 206.178 71.9738 218.62 64.6198C231.062 57.2719 244.625 49.0577 248.749 46.3729C253.58 43.2273 256.461 41.7037 256.831 42.0969C257.188 42.4778 255.996 45.6541 253.714 50.3909C251.687 54.6178 245.976 66.0881 241.024 75.8874C236.078 85.6866 232.171 93.7718 232.336 93.8578C232.502 93.9438 235.37 91.8672 238.704 89.25C242.044 86.6328 245.046 83.8005 245.383 82.9527C245.715 82.111 246.964 78.7872 248.156 75.5802C249.348 72.3732 252.407 64.9085 254.95 58.9921C257.494 53.0819 262.376 41.7467 265.805 33.8028C269.228 25.859 273.817 15.3532 275.99 10.4566C278.17 5.55394 280.235 1.20418 280.586 0.780259C280.936 0.356341 281.408 0.00614823 281.631 4.50037e-06ZM276.64 58.0706C275.589 67.194 274.276 77.1469 273.728 80.188C273.173 83.2291 272.313 86.5468 271.815 87.5605C271.318 88.5742 269.387 91.2037 267.52 93.397C265.652 95.5903 258.042 103.405 250.61 110.753L237.104 124.116C240.068 128.398 242.292 130.622 243.956 131.814C246.072 133.325 247.366 133.86 248.258 133.583C248.959 133.362 252.618 131.421 256.385 129.264C260.151 127.108 263.663 125.344 264.192 125.344C264.785 125.344 265.04 125.756 264.868 126.42C264.715 127.009 263.542 130.677 262.261 134.56C260.98 138.443 260.03 142 260.151 142.461C260.298 143.032 261.433 142.492 263.714 140.771L267.061 138.246C267.526 141.343 267.889 143.763 268.163 145.619C268.476 147.701 268.979 148.998 269.483 148.998C269.929 148.998 271.127 147.615 272.141 145.926L273.983 142.854C275.041 145.471 275.665 146.995 276.048 147.923C276.73 149.557 276.883 149.373 280.605 142.24C282.721 138.185 286.673 130.167 289.382 124.423C292.09 118.678 295.099 111.767 296.061 109.064C297.61 104.738 297.75 103.78 297.196 101.077C296.852 99.3872 293.046 85.7051 288.751 70.6652C284.448 55.6254 280.751 42.3918 280.528 41.2552C280.305 40.1186 279.936 39.068 279.706 38.9267C279.477 38.7854 279.12 39.3015 278.916 40.0756C278.712 40.8497 277.686 48.9471 276.64 58.0706ZM96.5625 202.338C94.1086 204.377 89.8063 207.468 87.0019 209.206C84.1974 210.945 78.1742 214.318 73.617 216.702C69.0597 219.086 62.4629 222.483 58.9573 224.252C55.4517 226.028 47.8478 229.917 42.0668 232.903C36.2858 235.889 30.9765 238.77 30.2754 239.305C29.5743 239.845 30.7215 239.477 32.8249 238.487C34.9282 237.498 41.2382 234.684 46.8472 232.233C52.4561 229.782 59.0529 226.949 61.5068 225.948C63.9607 224.947 67.6894 223.441 69.7927 222.606C71.896 221.764 75.6247 220.413 78.0786 219.589C80.5325 218.772 83.6174 218.103 84.9304 218.109C86.2434 218.109 90.1186 218.791 93.535 219.62C97.0533 220.468 103.625 222.833 108.673 225.07C113.58 227.238 122.472 231.226 128.431 233.929C134.391 236.632 140.267 239.126 141.498 239.477C142.97 239.894 144.704 239.913 146.597 239.526C148.177 239.2 153.41 237.842 158.229 236.509C165.813 234.414 167.828 234.095 173.207 234.113C176.623 234.132 181.429 234.377 183.883 234.672C186.337 234.961 189.632 235.366 191.213 235.575L194.081 235.956C189.632 234.488 183.756 232.804 178.147 231.269C172.538 229.726 165.01 227.797 161.416 226.974L154.882 225.487C141.772 229.874 139.19 230.439 137.036 230.261C135.455 230.132 133.02 229.475 131.618 228.799C130.216 228.123 124.48 225.113 118.871 222.114C113.262 219.116 106.525 215.504 103.892 214.085C101.024 212.536 99.0292 211.043 98.9017 210.355C98.7806 209.722 98.8507 208.586 99.061 207.824C99.265 207.062 101.011 204.23 102.936 201.527C104.861 198.823 106.346 196.501 106.232 196.36C106.123 196.225 104.899 196.679 103.523 197.374C102.152 198.062 99.0164 200.298 96.5625 202.338ZM10.9756 258.479C11.5238 259.56 12.0018 261.428 12.04 262.626C12.0783 263.824 12.2886 265.293 12.5053 265.882C12.8431 266.792 13.079 266.675 14.0924 265.114C14.7489 264.101 15.3353 262.675 15.3926 261.938C15.4627 261.029 14.6278 259.96 12.7348 258.559L9.97493 256.513L10.9756 258.479ZM183.787 1.85541C184.189 1.84927 189.129 6.34648 194.769 11.839C200.404 17.3315 211.373 28.2489 219.149 36.1067C231.297 48.388 233.165 50.5261 232.483 51.3739C232.043 51.9084 226.383 55.8281 219.895 60.0673C213.406 64.3126 207.6 67.8821 206.988 67.9988C206.376 68.1156 205.873 68.0726 205.873 67.9005C205.873 67.7285 207.307 63.9993 209.059 59.6065C210.812 55.2137 212.1 51.4845 211.928 51.3125C211.756 51.1404 208.237 53.1126 204.12 55.6868C200.002 58.2672 193.259 62.6906 189.141 65.5168C185.024 68.349 181.365 70.6652 181.015 70.6652C180.664 70.6652 180.518 69.9034 180.683 68.9757C180.856 68.048 181.601 56.9217 182.347 44.2472C183.207 29.6067 183.577 17.6817 183.373 11.5318C183.137 4.46035 183.246 1.85541 183.787 1.85541ZM186.057 28.1629C185.751 34.1407 185.209 41.7897 184.865 45.1687C184.52 48.5478 184.227 52.6272 184.221 54.2307C184.208 55.9756 184.457 57.0261 184.839 56.8418C185.19 56.6698 185.91 56.8111 186.433 57.149C187.14 57.6036 187.497 57.4869 187.803 56.6882C188.032 56.0984 188.676 55.1216 189.237 54.5195C189.798 53.9174 190.76 53.432 191.372 53.4443C191.984 53.4566 192.488 53.1187 192.481 52.6948C192.481 52.2709 191.455 43.9093 190.199 34.11C188.944 24.3108 187.854 16.2072 187.765 16.0966C187.682 15.9921 187.389 16.2195 187.121 16.6065C186.847 16.9874 186.369 22.1912 186.057 28.1629ZM379.921 143.88C380.233 143.991 383.987 149.336 388.264 155.756C392.535 162.176 401.165 175.305 407.443 184.939C413.715 194.572 422.345 208.359 426.609 215.584C431.058 223.116 434.914 228.958 435.647 229.272C436.348 229.567 437.393 230.568 437.973 231.49C438.553 232.411 441.816 238.973 445.233 246.069C448.643 253.165 453.289 262.976 455.565 267.879C457.834 272.782 460.377 278.514 461.212 280.627C462.053 282.741 462.735 284.885 462.735 285.389C462.735 285.892 462.232 286.562 461.62 286.875C461.008 287.183 455.195 287.877 448.713 288.418C442.231 288.952 431.038 290.101 423.855 290.967C416.672 291.833 404.626 293.615 397.085 294.93C389.545 296.245 377.499 298.579 370.316 300.127C363.132 301.67 353.374 303.906 348.645 305.098C343.915 306.29 339.683 307.113 339.244 306.929C338.644 306.671 338.791 305.927 339.811 303.973C340.563 302.536 343.361 298.598 346.025 295.219C348.747 291.772 358.569 281.561 368.403 271.958C378.047 262.54 388.226 253.066 391.03 250.898C393.835 248.735 398.284 245.891 400.91 244.588C403.542 243.28 407.698 241.633 410.152 240.92C412.606 240.208 415.984 239.28 420.694 238.082L417.048 232.86C415.04 229.985 411.229 224.185 408.571 219.958C405.913 215.737 400.954 206.958 397.544 200.452C394.134 193.945 391.132 188.625 390.871 188.631C390.61 188.631 389.724 190.775 388.908 193.392C388.092 196.01 386.084 200.206 384.446 202.712C382.808 205.225 380.609 207.904 379.558 208.666C378.506 209.428 375.925 210.798 373.821 211.719C370.418 213.206 369.506 213.347 365.535 213.016C363.081 212.807 359.939 212.278 358.556 211.842C357.167 211.406 354.585 209.778 352.82 208.23C350.665 206.343 348.989 204.101 347.752 201.471C346.331 198.449 345.828 196.317 345.592 192.311C345.388 188.926 345.566 186.223 346.102 184.631C346.554 183.28 348.001 180.515 349.314 178.488C350.633 176.46 352.813 174.058 354.158 173.149C355.509 172.233 357.402 171.201 358.365 170.845C359.327 170.489 361.768 170.2 363.782 170.2C365.797 170.206 369.309 170.63 371.59 171.14C373.872 171.656 376.16 172.203 376.689 172.356C377.518 172.596 377.645 170.931 377.658 159.897C377.671 150.693 377.907 146.669 378.512 145.416C378.971 144.458 379.602 143.769 379.921 143.88ZM360.232 179.544C359.072 180.65 357.587 182.389 356.931 183.403C356.274 184.416 355.433 186.561 355.063 188.164C354.515 190.517 354.572 191.525 355.375 193.386C355.917 194.652 356.994 196.354 357.766 197.159C358.531 197.97 360.449 199.419 362.03 200.396C363.942 201.57 365.746 202.166 367.447 202.172C369.283 202.184 370.87 201.625 373.133 200.169C375.274 198.787 376.868 197.079 378.181 194.769C379.5 192.434 380.093 190.536 380.093 188.625C380.093 187.101 379.564 184.896 378.92 183.71C378.27 182.524 376.855 180.792 375.778 179.852C374.701 178.912 372.387 177.732 370.634 177.234C368.882 176.737 367.301 176.356 367.129 176.393C366.957 176.43 365.803 176.7 364.579 176.995C363.355 177.29 361.399 178.432 360.232 179.544ZM161.097 181.928C161.537 181.898 162.04 182.143 162.212 182.481C162.384 182.819 160.166 185.774 157.273 189.043C154.379 192.317 151.249 195.838 148.63 198.762L141.714 196.808C137.915 195.733 133.008 194.492 130.815 194.044C128.489 193.571 126.825 192.913 126.831 192.465C126.838 192.041 128.489 191.261 130.503 190.732C132.517 190.204 140.051 188.017 147.234 185.879C154.417 183.741 160.657 181.965 161.097 181.928ZM418.756 303.605C428.4 303.574 439.152 303.801 442.658 304.109C446.163 304.416 451.326 305.122 454.131 305.681C456.935 306.247 462.818 307.746 467.197 309.024C471.582 310.295 476.311 311.819 477.713 312.397C479.173 313.005 484.087 313.828 489.186 314.32C494.094 314.793 501.698 315.475 506.077 315.837C510.462 316.199 514.261 316.617 514.522 316.765C514.783 316.912 515 317.858 515 318.872C515 319.886 514.312 322.718 513.464 325.169C512.623 327.621 510.156 333.494 507.989 338.225C505.822 342.955 501.475 351.944 498.333 358.192C495.184 364.44 492.488 369.625 492.335 369.711C492.182 369.797 490.327 368.415 488.217 366.64C486.108 364.864 482.456 362.284 480.091 360.907C477.733 359.531 473.653 357.547 471.021 356.496C468.395 355.452 460.791 353.08 454.131 351.225C447.47 349.376 439.152 347.231 435.647 346.464C430.248 345.272 427.52 345.063 417.8 345.081C408.138 345.1 404.874 345.364 397.085 346.758C391.999 347.668 382.827 349.628 376.689 351.114C370.558 352.601 357.504 356.306 347.689 359.353C337.873 362.4 328.121 365.472 326.018 366.179C323.915 366.891 319.179 368.292 315.501 369.287C311.824 370.289 308.235 371.1 307.534 371.088C306.674 371.075 304.672 369.036 301.351 364.784C298.655 361.325 295.137 356.287 293.544 353.584C291.944 350.881 290.064 347.01 289.362 344.983C288.661 342.955 288.088 340.535 288.088 339.607C288.094 338.679 288.521 337.088 289.05 336.074C289.579 335.061 290.797 333.844 291.759 333.371C292.721 332.904 299.395 330.527 306.578 328.094C313.761 325.661 323.086 322.478 327.293 321.022C331.499 319.566 338.67 317.256 343.227 315.88C347.784 314.51 355.962 312.292 361.392 310.959C366.823 309.62 375 307.801 379.558 306.922C384.115 306.038 390.858 304.938 394.536 304.483C398.628 303.973 408.042 303.629 418.756 303.605ZM403.14 314.664C400.336 315.339 392.879 317.514 386.569 319.493C380.259 321.471 371.514 324.088 367.129 325.311C362.75 326.533 352.922 329.458 345.299 331.805C337.676 334.151 330.645 336.062 329.683 336.05C328.72 336.044 327.216 335.638 326.337 335.153C325.463 334.668 323.092 334.262 321.078 334.256C319.064 334.244 316.623 334.612 315.661 335.079C314.698 335.546 312.831 337.064 311.518 338.458C310.128 339.927 308.847 342.083 308.465 343.601C307.929 345.708 307.993 346.476 308.783 347.594C309.325 348.356 310.842 349.652 312.155 350.482C313.468 351.311 315.692 352.245 317.095 352.564C318.593 352.896 320.83 352.914 322.512 352.607C324.418 352.251 326.343 351.268 328.249 349.671L331.117 347.268L330.798 337.918C354.757 330.318 362.431 328.1 363.304 328.094C364.229 328.081 367.83 329.931 371.909 332.511C377.422 335.995 379.532 336.996 381.788 337.18C383.369 337.316 390.75 337.119 398.201 336.75C405.652 336.376 412.249 335.823 412.86 335.515C413.549 335.178 407.475 334.999 397.034 335.055L380.087 335.153C375.816 332.296 373.401 330.453 371.966 329.212C370.22 327.707 369.57 326.754 369.997 326.343C370.347 325.999 374.433 325.01 379.08 324.137C384.077 323.203 389.736 322.558 392.942 322.558C395.919 322.558 403.88 323.259 410.63 324.113C417.379 324.967 426.341 326.201 430.548 326.859C434.754 327.516 440.994 328.475 444.411 328.991C447.827 329.507 451.415 329.937 452.378 329.943C453.493 329.949 453.901 329.74 453.493 329.378C453.143 329.064 443.244 327.264 431.504 325.384C419.763 323.504 406.633 321.618 402.337 321.188C396.939 320.648 394.53 320.168 394.53 319.64C394.536 319.191 396.314 318.51 398.838 317.993C401.203 317.514 404.861 316.82 406.965 316.458C409.068 316.089 414.231 315.8 418.438 315.806C422.644 315.812 432.249 316.501 439.79 317.336C447.33 318.172 455.074 318.847 456.999 318.841C459.918 318.835 460.294 318.718 459.23 318.147C458.528 317.772 455.66 317.109 452.856 316.685C450.051 316.255 441.013 315.333 432.778 314.633C424.544 313.932 416.366 313.269 414.613 313.158C412.86 313.048 410.713 313.066 409.833 313.195C408.96 313.324 405.945 313.988 403.14 314.664ZM278.533 331.946C279.917 332.063 280.917 333.549 286.067 343.14C289.331 349.222 295.143 360.072 298.974 367.254C302.805 374.436 305.941 381.004 305.941 381.845C305.941 382.908 305.45 383.572 304.347 383.996C303.474 384.333 301.677 384.616 300.364 384.622C298.031 384.641 297.903 384.518 294.984 379.554C293.34 376.758 287.533 365.767 282.077 355.12C276.615 344.473 272.109 335.313 272.051 334.76C271.981 334.115 272.848 333.396 274.441 332.781C275.818 332.247 277.66 331.872 278.533 331.946ZM272.319 346.513C272.931 346.519 274.027 347.416 274.76 348.516C275.487 349.615 279.056 356.318 282.702 363.414C286.341 370.51 289.401 376.992 289.503 377.815C289.668 379.154 289.197 379.505 285.226 381.016C282.772 381.956 280.261 382.73 279.649 382.742C279.037 382.755 277.099 381.526 275.347 380.002C273.594 378.479 271.873 377.379 271.522 377.545C271.172 377.711 270.738 380.064 270.248 387.682L266.423 389.525C264.32 390.539 262.095 391.362 261.484 391.362C260.872 391.356 258.788 389.98 253.357 385.255L252.082 396.873L242.522 401.831L238.379 397.813C236.103 395.601 234.013 394.004 233.739 394.268C233.465 394.532 233.254 397.168 233.261 400.123C233.273 403.84 233.031 405.603 232.483 405.849C232.043 406.039 228.244 405.21 224.038 404.012C219.002 402.574 215.083 401.831 212.565 401.831C209.646 401.831 207.606 402.304 203.96 403.834C201.334 404.933 197.893 406.611 196.312 407.557C194.731 408.503 188.281 412.201 181.971 415.783C175.661 419.359 165.482 425.183 159.344 428.728C153.213 432.267 144.5 437.403 139.987 440.143C135.481 442.883 123.575 450.385 113.536 456.817C103.504 463.244 92.7446 470.297 89.6278 472.484C86.5174 474.671 75.1849 482.793 64.4515 490.54C53.7181 498.281 39.1986 508.965 32.1875 514.273C25.1764 519.588 15.5711 527.132 10.8354 531.046C6.09969 534.959 1.72729 538.166 1.11541 538.179C0.503527 538.191 0 537.792 0 537.282C0 536.772 0.758477 534.91 1.68267 533.135C2.61324 531.359 5.10538 527.421 7.22784 524.38C9.35668 521.339 14.1051 515.256 17.7892 510.864C21.4732 506.471 27.0757 499.971 30.2371 496.426C33.3985 492.881 39.1731 486.522 43.0739 482.295C46.9746 478.075 56.0126 468.933 63.164 461.984C70.3154 455.036 79.2769 446.883 83.082 443.86C86.8808 440.837 92.0435 436.936 94.5548 435.191C97.0597 433.44 104.848 428.998 111.86 425.318C118.871 421.632 132.351 414.72 141.816 409.959C151.281 405.198 170.211 395.73 183.883 388.917C197.555 382.103 222.795 369.773 239.972 361.516C257.149 353.265 271.707 346.513 272.319 346.513ZM162.531 407.446C155.348 411.028 145.596 415.961 140.86 418.413C136.124 420.864 127.666 425.214 122.058 428.083C116.449 430.952 110.642 434.098 109.151 435.068C107.659 436.039 106.295 437.108 106.123 437.446C105.951 437.784 105.875 438.208 105.964 438.392C106.053 438.576 108.845 437.237 112.178 435.419C115.512 433.594 121.082 430.614 124.569 428.783C128.055 426.959 146.546 417.866 165.654 408.571C184.769 399.281 200.423 391.331 200.442 390.907C200.461 390.483 200.187 390.145 199.83 390.145C199.473 390.152 193.877 392.585 187.389 395.546C180.9 398.513 169.714 403.864 162.531 407.446ZM416.844 362.204C431.191 362.382 435.819 362.658 442.339 363.746C446.724 364.477 453.678 366.013 457.795 367.162C461.913 368.311 466.075 369.625 467.037 370.086C468.363 370.713 469.262 372.077 470.702 375.634C471.754 378.227 472.685 380.34 472.774 380.328C472.863 380.322 474.514 377.821 476.439 374.78C478.364 371.739 480.371 369.251 480.9 369.251C481.429 369.251 482.921 370.842 484.221 372.783C485.521 374.725 488.766 380.463 491.43 385.532C494.1 390.6 497.364 397.235 498.683 400.276C500.003 403.318 502.068 409.265 503.272 413.486C504.477 417.712 506.332 425.453 507.402 430.688C508.467 435.922 509.888 443.946 510.558 448.505C511.22 453.063 511.992 459.496 512.272 462.795C512.597 466.703 512.546 468.785 512.132 468.785C511.781 468.785 510.239 464.288 508.709 458.796C507.179 453.303 504.636 445.359 503.068 441.132C501.494 436.912 498.588 430.203 496.612 426.234C494.629 422.265 492.979 419.089 492.934 419.168C492.896 419.254 493.788 422.916 494.923 427.309C496.051 431.702 497.466 438.472 498.059 442.361C498.651 446.25 499.34 452.265 499.582 455.73C499.869 459.797 499.799 462.033 499.384 462.039C499.034 462.046 497.765 459.901 496.561 457.272C495.356 454.649 493.508 450.975 492.456 449.119C491.398 447.264 489.199 443.805 487.561 441.439C485.923 439.074 482.965 435.271 480.99 432.992C479.014 430.713 477.248 429.121 477.076 429.459C476.904 429.797 476.445 434.429 476.056 439.75C475.674 445.07 475.17 449.623 474.941 449.856C474.711 450.096 470.498 447.743 465.578 444.634C460.657 441.526 451.479 435.965 445.182 432.279C438.885 428.593 425.417 420.311 415.251 413.885C405.084 407.452 394.759 400.995 392.305 399.539C389.851 398.077 387.487 396.885 387.047 396.891C386.435 396.897 386.212 400.516 386.091 412.515C386.001 421.104 385.715 428.359 385.447 428.642C385.179 428.925 384.319 428.851 383.535 428.476C382.751 428.108 374.79 423.426 365.854 418.075C356.918 412.724 346.879 406.789 343.546 404.884C340.212 402.986 335.4 400.344 332.844 399.011C330.288 397.678 328.198 396.449 328.204 396.283C328.211 396.117 328.931 394.452 329.81 392.597C330.684 390.741 331.882 386.312 332.468 382.767C333.061 379.222 333.858 376.003 334.24 375.622C334.629 375.235 337.956 374.073 341.634 373.041C345.311 372.009 351.768 370.338 355.975 369.324C360.181 368.317 367.352 366.799 371.909 365.951C376.466 365.104 383.35 363.985 387.206 363.463C391.062 362.941 395.364 362.394 396.767 362.253C398.169 362.112 407.207 362.087 416.844 362.204ZM323.112 403.035C323.66 403.029 331.703 407.274 340.996 412.466C352.813 419.064 357.938 422.253 358.052 423.07C358.154 423.795 353.113 430.799 344.833 441.439C337.465 450.901 331.436 458.986 331.436 459.41C331.436 459.834 331.582 460.178 331.754 460.178C331.926 460.178 334.871 460.454 338.287 460.798C341.704 461.136 346.796 461.708 349.601 462.058C352.405 462.414 355.127 462.943 355.656 463.237C356.383 463.643 356.44 463.962 355.885 464.583C355.49 465.031 352.048 466.961 348.237 468.865C344.432 470.776 338.02 473.59 333.985 475.113C329.951 476.643 324.214 478.369 321.238 478.941C317.012 479.758 314.207 479.899 308.49 479.58C304.456 479.352 295.137 478.627 287.775 477.976C279.075 477.202 272.16 476.231 268.017 475.205C264.511 474.339 256.193 471.869 249.533 469.725C242.872 467.581 235.415 465.099 232.961 464.202C230.507 463.305 228.786 462.844 229.137 463.176C229.487 463.508 233.363 465.621 237.741 467.87C242.126 470.125 249.004 473.424 253.038 475.205C257.073 476.987 263.166 479.309 266.583 480.372C270.643 481.626 276.385 482.738 283.154 483.573C290.573 484.489 298.757 484.949 311.996 485.183C323.315 485.386 331.837 485.269 333.985 484.888C335.91 484.544 341.94 482.67 347.37 480.723C356.567 477.423 357.428 477.227 359.799 477.847C361.201 478.222 364.86 479.371 367.925 480.409C372.183 481.847 373.464 482.541 373.343 483.334C373.235 484.022 369.576 485.951 362.348 489.127C356.389 491.751 347.638 495.32 342.908 497.065C338.179 498.81 331.863 500.751 328.886 501.378C325.91 501.998 319.313 502.932 314.226 503.442C309.14 503.958 296.954 504.831 287.138 505.383C277.093 505.955 266.226 506.237 262.28 506.029C258.424 505.832 251.827 505.101 247.621 504.413C243.414 503.725 236.957 502.465 233.28 501.624C229.602 500.776 224.293 499.363 221.488 498.484C218.684 497.605 213.668 495.775 210.334 494.417C207.001 493.059 201.557 490.43 198.224 488.58C194.891 486.725 190.735 484.255 185.795 480.956L188.663 483.487C190.244 484.882 194.113 487.683 197.268 489.723C200.423 491.757 206.873 495.314 211.609 497.63C216.345 499.946 222.795 502.871 225.95 504.136C229.105 505.396 235.128 507.644 239.335 509.119C243.541 510.599 249.851 512.608 253.357 513.579C256.863 514.55 263.173 515.686 267.379 516.11C272.65 516.633 280.579 516.762 292.874 516.504C302.69 516.307 313.589 515.834 317.095 515.465C320.6 515.097 325.623 514.372 328.249 513.85C330.881 513.333 337.758 511.41 343.546 509.586C350.78 507.294 357.842 504.456 366.173 500.493C372.833 497.323 380.144 493.403 382.426 491.781C384.708 490.165 388.226 487.296 390.253 485.41C392.28 483.53 393.943 481.712 393.943 481.374C393.95 481.036 393.146 480.428 392.171 480.016C391.196 479.604 386.951 478.308 382.744 477.128C378.538 475.943 373.018 474.413 370.475 473.725C367.932 473.031 365.72 472.256 365.548 472.005C365.382 471.753 367.537 468.988 370.328 465.861C373.126 462.734 375.415 459.901 375.415 459.564C375.415 459.226 375.198 458.949 374.937 458.949C374.675 458.949 372.164 458.685 369.36 458.359C366.555 458.034 359.531 457.45 353.744 457.063C347.956 456.67 342.583 456.105 341.793 455.81C341.003 455.509 340.378 454.919 340.397 454.495C340.416 454.071 345.681 447.645 352.099 440.211C359.952 431.106 364.152 426.707 364.968 426.725C365.631 426.744 372.126 430.405 379.398 434.866C386.671 439.326 392.738 442.908 392.885 442.822C393.025 442.736 393.319 436.451 393.535 428.845C393.758 421.245 394.071 413.295 394.236 411.182C394.459 408.306 394.778 407.342 395.492 407.342C396.021 407.342 404.651 412.662 414.671 419.168C424.697 425.675 433.518 431.45 434.27 432.009C435.634 433.016 435.634 433.047 434.48 435.388C433.837 436.69 429.114 445.218 423.989 454.341C418.858 463.465 408.322 482.129 400.578 495.812C387.321 519.231 386.365 520.737 384.3 521.394C383.095 521.775 375.721 523.157 367.919 524.466C360.118 525.768 353.725 526.979 353.725 527.145C353.718 527.31 354.942 527.827 356.44 528.287C357.938 528.742 367.192 531.967 377.008 535.445C386.824 538.922 400.164 543.696 406.646 546.049C413.128 548.408 420.158 551.13 422.262 552.1C424.524 553.145 426.15 554.306 426.245 554.945C426.354 555.688 425.863 556.112 424.652 556.327C423.689 556.493 413.147 557.464 401.228 558.484C389.309 559.497 370.526 561.156 359.48 562.164C348.434 563.165 336.031 564.204 331.907 564.462C327.79 564.72 324.405 565.07 324.393 565.236C324.38 565.402 327.694 568.449 331.754 571.994C335.821 575.539 339.562 579.065 340.072 579.827C340.582 580.589 340.996 581.621 340.996 582.131C340.996 582.69 339.613 583.538 337.491 584.281C335.566 584.957 330.186 586.321 325.54 587.316C320.893 588.312 310.931 590.099 303.391 591.291C295.851 592.483 282.944 594.431 274.709 595.623C266.474 596.815 250.839 598.762 239.972 599.96C229.105 601.152 216.772 602.528 212.565 603.02C208.358 603.505 193.59 604.894 179.74 606.098C165.89 607.302 149.401 608.825 143.091 609.471C136.781 610.122 125.308 611.234 117.596 611.947C109.884 612.659 100.419 613.636 96.5625 614.121C92.7064 614.607 87.7603 615.006 85.5678 615C83.3369 615 81.5842 614.73 81.5842 614.386C81.5842 614.048 82.3745 613.482 83.3369 613.126C84.2994 612.776 94.695 610.687 106.442 608.494C118.189 606.3 131.95 603.695 137.036 602.7C142.122 601.711 164.347 597.558 186.433 593.472C208.518 589.381 233.324 584.687 241.566 583.04C249.8 581.4 260.993 579.09 266.423 577.916C271.854 576.743 279.171 575.066 282.676 574.193C286.182 573.321 289.12 572.467 289.209 572.301C289.299 572.129 287.801 571.097 282.415 568L267.564 569.057C259.399 569.641 243.541 570.827 232.324 571.687C221.106 572.553 203.756 573.941 193.762 574.777C183.768 575.606 157.528 577.812 135.442 579.667C113.357 581.529 89.2645 583.47 81.9028 583.986C74.5412 584.502 63.9288 585.08 58.3199 585.264C51.9334 585.473 48.3577 585.381 48.7593 585.019C49.1098 584.699 54.4192 583.98 60.5507 583.415C66.6887 582.85 77.8746 581.689 85.4084 580.835C92.9422 579.987 107.863 578.064 118.552 576.577C129.241 575.084 147.744 572.485 159.663 570.796C171.582 569.112 192.092 566.084 205.235 564.062C218.384 562.047 236.161 559.258 244.752 557.869C253.344 556.481 265.818 554.398 272.478 553.243C279.139 552.082 288.891 550.294 294.149 549.262C299.407 548.236 305.571 546.958 307.853 546.417C310.135 545.883 312.423 545.084 312.952 544.642C313.787 543.935 313.666 543.616 311.996 542.111C310.944 541.158 306.929 538.965 303.072 537.226C299.216 535.494 295.054 533.755 293.83 533.368C292.046 532.797 287.928 532.957 273.116 534.191C262.95 535.033 252.484 535.899 249.851 536.121C247.225 536.336 244.854 536.612 244.593 536.741C244.332 536.87 247.104 538.701 250.757 540.814C254.415 542.928 258.067 545.115 258.883 545.674C260.209 546.583 260.266 546.798 259.412 547.665C258.832 548.248 256.455 548.869 253.357 549.244C250.553 549.581 236.639 550.706 222.444 551.732C208.25 552.758 184.584 554.57 169.861 555.75C155.137 556.929 137.068 558.453 129.706 559.129C122.344 559.811 102.267 561.74 85.0897 563.417C67.9124 565.094 51.7804 566.464 49.2373 566.464C46.5795 566.464 44.6163 566.2 44.6163 565.85C44.6163 565.512 48.9887 564.253 54.3363 563.049C59.6839 561.844 70.4364 559.633 78.2379 558.134C86.0394 556.634 97.5122 554.601 103.733 553.612C109.954 552.623 127.239 550.288 142.135 548.414C157.037 546.54 176.394 544.169 185.158 543.143C193.922 542.111 202.38 540.864 203.96 540.372C205.758 539.807 206.115 539.573 204.916 539.745C203.865 539.899 192.532 540.864 179.74 541.89C166.948 542.922 150.166 544.298 142.454 544.961C134.741 545.619 120.26 546.436 110.266 546.774C100.272 547.106 82.7824 547.572 71.3861 547.8C52.3923 548.181 50.6714 548.132 50.6714 547.204C50.6714 546.645 51.0283 546.19 51.4681 546.19C51.9079 546.19 61.0861 542.836 71.8642 538.738C82.6422 534.64 93.4712 530.622 95.9251 529.817C98.379 529.012 107.704 526.936 116.64 525.197C127.284 523.133 134.544 522.039 137.673 522.021C141.663 522.002 144.404 522.561 166.037 528.779L192.488 524.153C207.033 521.609 218.652 519.44 218.301 519.342C217.951 519.238 206.045 520.515 166.037 525.203L159.185 522.641C155.411 521.234 152.327 519.735 152.333 519.311C152.333 518.887 153.837 518.144 155.679 517.652C157.521 517.161 161.607 516.08 164.762 515.238C167.917 514.402 170.352 513.696 170.179 513.671C170.007 513.647 162.117 514.593 152.652 515.779C143.187 516.958 135.086 517.929 134.646 517.929C134.206 517.929 133.862 517.585 133.868 517.161C133.881 516.737 135.436 514.599 137.329 512.4C139.216 510.2 141.721 507.515 142.881 506.422C144.595 504.812 148.477 503.221 163.168 498.079C173.162 494.583 181.907 491.382 183.883 490.221L182.608 490.546C181.907 490.725 173.449 493.114 163.806 495.861C154.169 498.607 145.488 501.243 144.525 501.716C143.563 502.183 138.54 506.403 123.97 519.606L118.552 520.595C115.569 521.142 112.892 521.388 112.599 521.142C112.306 520.896 113.026 519.95 114.192 519.035C115.365 518.126 119.259 515.152 122.854 512.43C126.449 509.709 137.061 500.905 146.437 492.869C155.813 484.827 169.083 473.565 175.922 467.833C182.755 462.101 189.639 456.412 191.219 455.189C192.794 453.967 196.376 451.589 199.18 449.918C201.985 448.241 212.023 442.711 221.488 437.63C230.953 432.556 241.923 426.701 245.868 424.63C249.813 422.554 253.395 420.852 253.835 420.84C254.275 420.833 256.353 421.552 258.456 422.443C260.559 423.334 266.869 425.208 282.676 429.152L283.084 432.838C283.307 434.866 283.55 439.983 283.613 444.204C283.677 448.431 283.958 453.125 284.238 454.649C284.518 456.172 284.786 456.86 284.837 456.184C284.888 455.509 286.214 449.426 287.782 442.668C289.356 435.91 290.994 430.043 291.434 429.625C291.88 429.213 293.525 428.691 297.973 428.071L307.585 438.134C312.875 443.67 318.255 449.303 319.549 450.655C321.665 452.873 321.27 451.89 315.508 440.518C312.002 433.594 309.121 427.512 309.115 427.002C309.108 426.381 311.148 425.398 315.329 424.016C318.752 422.879 323.207 421.147 325.221 420.176C327.235 419.199 329.173 417.848 329.524 417.172C329.874 416.496 329.944 415.826 329.683 415.691C329.422 415.55 326.623 416.25 323.468 417.252C320.313 418.247 313.857 420.041 309.127 421.227C303.257 422.707 298.496 423.494 294.149 423.715C288.508 423.997 286.934 423.825 280.446 422.216C276.411 421.214 271.178 419.531 268.813 418.474C266.449 417.424 264.511 416.281 264.511 415.943C264.511 415.605 267.666 413.805 278.533 408.571L284.11 410.451C287.176 411.483 291.912 412.589 294.627 412.908C297.922 413.295 301.001 413.264 303.869 412.828C306.597 412.416 309.924 411.292 312.952 409.775C315.584 408.46 318.72 406.408 319.925 405.21C321.136 404.018 322.57 403.035 323.112 403.035ZM214.158 406.758C215.739 406.74 219.321 407.157 222.126 407.686C224.93 408.214 227.441 408.767 227.703 408.915C227.964 409.062 228.181 409.461 228.181 409.799C228.181 410.137 218.212 416.809 206.032 424.624C193.852 432.445 181.302 440.579 178.147 442.705C174.992 444.837 169.848 448.597 166.725 451.073C163.595 453.549 156.297 460.411 150.51 466.322C144.723 472.238 135.238 481.884 129.432 487.769C123.619 493.649 116.723 500.038 114.09 501.961C111.464 503.884 108.163 506.029 106.761 506.723C105.358 507.411 98.6212 510.096 91.7822 512.682C84.9431 515.269 72.3231 519.563 63.7376 522.223C55.1522 524.89 44.3933 528.042 39.836 529.233C35.2788 530.425 26.961 532.49 21.3521 533.817C15.7432 535.15 10.1534 536.336 8.92327 536.452C7.4828 536.594 6.69245 536.403 6.69245 535.924C6.69245 535.518 12.2886 531.224 19.1213 526.383C25.954 521.548 39.7213 511.927 49.7153 505.009C59.703 498.091 70.0285 490.983 72.6609 489.207C75.2869 487.431 89.2008 478.425 103.574 469.191C117.946 459.957 133.798 449.936 138.795 446.92C143.792 443.903 152.397 438.742 157.916 435.449C163.436 432.156 172.398 426.879 177.828 423.727C183.258 420.569 191.436 415.955 195.993 413.467C200.55 410.985 205.86 408.466 207.785 407.87C209.71 407.28 212.578 406.777 214.158 406.758ZM440.72 436.832C441.262 436.832 445.647 439.148 450.466 441.986C455.284 444.819 463.819 449.697 469.428 452.83C475.037 455.957 481.78 459.908 484.406 461.603C487.038 463.299 490.907 465.935 493.011 467.458C495.114 468.982 500.793 473.289 505.637 477.03C510.475 480.772 514.203 484.04 513.923 484.298C513.636 484.55 508.958 483.223 503.527 481.349C498.097 479.469 493.444 478.013 493.195 478.118C492.94 478.216 493.731 480.378 494.942 482.91C496.159 485.447 498.154 490.491 499.384 494.122C501.405 500.112 501.615 501.384 501.615 507.792C501.615 512.479 501.175 516.977 500.302 521.154C499.582 524.619 497.969 529.94 496.726 532.981C495.477 536.022 493.297 540.587 491.876 543.118C490.455 545.656 488.313 549.25 487.121 551.105C485.744 553.255 484.75 554.263 484.374 553.87C484.024 553.495 484.049 550.595 484.444 546.497C484.884 541.896 484.884 537.583 484.438 532.981C484.081 529.264 483.246 524.153 482.577 521.615C481.914 519.084 480.301 514.519 478.995 511.478C477.694 508.437 475.871 504.708 474.947 503.184C474.023 501.66 471.537 498.761 469.428 496.733C467.318 494.706 464.156 492.297 462.41 491.388C460.657 490.473 456.935 489.158 454.131 488.457C451.326 487.763 447.024 487.198 444.57 487.192C441.976 487.192 437.572 487.806 434.053 488.66C430.72 489.465 426.137 491.026 423.855 492.131C421.573 493.231 418.132 495.16 416.207 496.42C414.282 497.673 410.177 501.021 407.092 503.86C403.332 507.325 401.273 508.818 400.84 508.406C400.406 507.995 401.585 505.089 404.453 499.498C406.799 494.939 411.229 486.645 414.295 481.067C417.367 475.488 421.542 468.165 423.575 464.786C425.608 461.407 429.643 454.495 432.536 449.426C435.43 444.358 438.234 439.449 438.77 438.521C439.305 437.594 440.185 436.832 440.72 436.832ZM442.02 497.298C447.534 497.458 450.121 497.851 454.131 499.141C456.935 500.045 460.778 501.808 462.665 503.061C464.558 504.308 467.726 506.993 469.702 509.021C471.678 511.048 474.208 514.501 475.33 516.7C476.451 518.9 477.815 522.352 478.364 524.38C478.912 526.407 479.53 530.831 479.747 534.21C480.04 538.91 479.868 541.509 479.007 545.269C478.389 547.972 477.127 552.064 476.203 554.355C475.279 556.653 474.24 558.428 473.889 558.299C473.539 558.177 473.067 554.38 472.838 549.827C472.5 543.014 472.13 540.833 470.728 537.282C469.797 534.916 468.293 532.01 467.394 530.831C466.489 529.651 464.858 527.913 463.761 526.973C462.671 526.033 460.492 524.607 458.911 523.809C457.33 523.01 454.322 521.879 452.218 521.296C449.242 520.466 446.839 520.294 441.383 520.522C435.481 520.761 433.562 521.118 429.273 522.733C426.468 523.79 421.733 526.076 418.756 527.808C415.78 529.541 413.16 530.72 412.95 530.431C412.733 530.143 411.063 525.904 409.24 521.001C406.761 514.329 406.072 511.785 406.512 510.864C406.837 510.188 408.647 508.474 410.54 507.061C412.427 505.641 416.13 503.528 418.756 502.361C421.389 501.193 425.544 499.676 427.998 498.994C430.452 498.312 433.033 497.605 433.735 497.427C434.436 497.249 438.164 497.194 442.02 497.298Z" fill="#0480B6"/>
</g>
</svg>
